<?xml version="1.0" standalone="no"?>
<!DOCTYPE svg PUBLIC "-//W3C//DTD SVG 20010904//EN"
 "http://www.w3.org/TR/2001/REC-SVG-20010904/DTD/svg10.dtd">
<svg version="1.0" xmlns="http://www.w3.org/2000/svg"
 width="462.000000pt" height="462.000000pt" viewBox="0 0 462.000000 462.000000"
 preserveAspectRatio="xMidYMid meet">
<metadata>
Created by potrace 1.11, written by Peter Selinger 2001-2013
</metadata>
<g transform="translate(0.000000,462.000000) scale(0.100000,-0.100000)"
fill="#000000" stroke="none">
<path d="M2125 4508 c-185 -109 -229 -135 -350 -203 -44 -26 -100 -58 -125
-72 -251 -145 -878 -508 -903 -522 -18 -10 -77 -44 -132 -76 -55 -32 -145 -84
-200 -116 l-100 -58 0 -1151 0 -1151 310 -179 c171 -99 360 -208 420 -243 61
-36 369 -214 685 -396 l575 -332 40 20 c22 11 63 33 90 49 28 16 178 104 335
194 157 91 447 258 645 373 198 114 376 217 395 227 19 11 123 71 230 133 107
62 211 121 230 132 l35 20 0 1152 0 1152 -70 41 c-38 22 -142 82 -230 133 -88
50 -232 134 -320 185 -88 51 -176 102 -195 113 -36 20 -235 134 -835 481 -186
108 -344 196 -350 195 -5 0 -86 -46 -180 -101z m320 -113 c70 -41 129 -75 130
-75 1 0 43 -25 93 -55 50 -30 96 -55 101 -55 5 0 12 -4 15 -9 3 -5 -13 -5 -37
1 -159 37 -282 50 -447 49 -69 -1 -138 -3 -155 -5 -16 -2 -57 -7 -90 -11 -32
-4 -68 -9 -80 -11 -11 -2 -35 -7 -54 -10 -19 -3 -45 -10 -59 -15 -46 -18 -32
-3 36 36 231 134 408 235 412 235 4 0 64 -34 135 -75z m170 -289 c507 -93 928
-368 1213 -791 147 -220 256 -506 289 -765 10 -81 10 -430 0 -490 -62 -358
-181 -631 -391 -895 -63 -79 -234 -245 -319 -308 -139 -104 -295 -190 -458
-253 -104 -39 -307 -90 -399 -100 -36 -3 -78 -8 -95 -10 -45 -5 -243 -4 -303
1 -439 42 -820 222 -1133 534 -249 250 -414 551 -488 893 -11 53 -23 118 -26
144 -3 27 -8 65 -10 84 -6 48 -7 294 -1 322 3 13 8 46 10 75 10 94 49 259 87
367 87 247 233 479 424 672 289 292 626 463 1040 528 121 19 438 14 560 -8z
m-1726 -473 c-114 -121 -203 -244 -291 -403 -44 -80 -110 -234 -134 -315 -10
-33 -20 -63 -23 -67 -3 -4 -6 117 -6 268 l0 274 30 18 c17 10 50 30 75 44 25
14 119 68 210 121 91 53 167 96 170 96 2 1 -12 -16 -31 -36z m3066 -110 c105
-60 199 -115 210 -122 19 -12 20 -23 20 -286 0 -151 -3 -271 -6 -267 -3 4 -13
34 -23 67 -27 92 -100 255 -163 363 -52 91 -177 268 -212 302 -9 9 -32 33 -51
54 l-35 39 35 -20 c19 -12 121 -70 225 -130z m230 -2012 c0 -154 -3 -282 -5
-284 -3 -2 -97 -57 -210 -122 -113 -65 -221 -127 -240 -138 l-35 -20 41 44
c191 206 357 491 429 742 9 31 17 57 18 57 2 0 2 -126 2 -279z m-3730 222 c14
-57 90 -241 132 -322 79 -148 175 -285 285 -406 50 -55 51 -58 18 -38 -19 11
-111 64 -205 118 -93 54 -188 109 -210 121 l-39 23 -1 270 c0 148 2 268 6 265
4 -2 10 -16 14 -31z m1600 -1349 c33 -3 69 -8 80 -10 30 -7 276 -5 358 2 39 3
117 14 171 25 55 10 101 17 103 15 2 -2 -31 -23 -74 -48 -43 -25 -138 -79
-211 -122 -184 -107 -172 -103 -218 -73 -59 37 -396 231 -416 239 -38 15 -15
14 64 -3 45 -10 110 -21 143 -25z"/>
<path d="M2290 3468 c-7 -35 -15 -71 -17 -81 -1 -10 -16 -73 -32 -140 -59
-247 -141 -593 -147 -622 -2 -11 -7 -34 -10 -51 -6 -30 -7 -31 -123 -58 -65
-14 -126 -28 -137 -31 -10 -2 -50 -11 -89 -20 -38 -9 -77 -18 -85 -20 -24 -6
-216 -51 -340 -80 -63 -15 -124 -29 -135 -31 -95 -18 -98 -28 -17 -45 31 -7
59 -13 62 -14 49 -12 68 -16 85 -20 31 -6 258 -59 475 -110 107 -25 218 -51
246 -57 l51 -11 43 -186 c23 -102 50 -220 60 -261 92 -395 122 -527 123 -538
1 -35 18 20 56 185 23 100 44 190 46 200 2 10 27 117 55 238 28 121 53 229 56
240 2 11 9 43 15 71 l12 52 51 10 c28 6 177 41 331 77 390 91 545 127 578 132
32 6 43 18 19 21 -9 1 -111 24 -227 51 -115 27 -329 77 -475 111 -146 34 -268
64 -272 68 -5 5 -128 518 -183 762 -2 8 -13 58 -25 110 -11 52 -25 99 -29 103
-5 5 -14 -20 -21 -55z"/>
</g>
</svg>
