<?xml version="1.0" encoding="UTF-8" standalone="no"?>
<svg
   xmlns:dc="http://purl.org/dc/elements/1.1/"
   xmlns:cc="http://creativecommons.org/ns#"
   xmlns:rdf="http://www.w3.org/1999/02/22-rdf-syntax-ns#"
   xmlns:svg="http://www.w3.org/2000/svg"
   xmlns="http://www.w3.org/2000/svg"
   xmlns:sodipodi="http://sodipodi.sourceforge.net/DTD/sodipodi-0.dtd"
   xmlns:inkscape="http://www.inkscape.org/namespaces/inkscape"
   width="16px"
   height="16px"
   viewBox="0 0 16 16"
   version="1.1"
   id="svg4185"
   inkscape:version="0.91 r13725"
   sodipodi:docname="mortar-board.svg">
  <metadata
     id="metadata4198">
    <rdf:RDF>
      <cc:Work
         rdf:about="">
        <dc:format>image/svg+xml</dc:format>
        <dc:type
           rdf:resource="http://purl.org/dc/dcmitype/StillImage" />
      </cc:Work>
    </rdf:RDF>
  </metadata>
  <sodipodi:namedview
     pagecolor="#ffffff"
     bordercolor="#666666"
     borderopacity="1"
     objecttolerance="10"
     gridtolerance="10"
     guidetolerance="10"
     inkscape:pageopacity="0"
     inkscape:pageshadow="2"
     inkscape:window-width="3078"
     inkscape:window-height="1752"
     id="namedview4196"
     showgrid="false"
     inkscape:zoom="95.875"
     inkscape:cx="8.3233377"
     inkscape:cy="8"
     inkscape:window-x="122"
     inkscape:window-y="48"
     inkscape:window-maximized="1"
     inkscape:current-layer="svg4185" />
  <!-- Generator: Sketch 40.3 (33839) - http://www.bohemiancoding.com/sketch -->
  <title
     id="title4187">mortar-board</title>
  <desc
     id="desc4189">Created with Sketch.</desc>
  <defs
     id="defs4191" />
  <g
     id="Octicons"
     stroke="none"
     stroke-width="1"
     fill="none"
     fill-rule="evenodd">
    <g
       id="mortar-board"
       fill="#000000">
      <path
         d="M7.83,9.19 L4,8 C8.8817842e-16,1.33226763e-15 4,9.5 4,10.5 C4,11.5 5.8,12 8,12 C10.2,12 12,11.5 12,10.5 L12,8 L8.17,9.19 C8.06,9.22 7.94,9.22 7.81,9.19 L7.83,9.19 L7.83,9.19 Z M8.11,2.8 C8.05,2.78 7.97,2.78 7.91,2.8 L0.27,5.18 C-0.06,5.29 -0.06,5.74 0.27,5.85 L2,6.4 L2,8.17 C1.7,8.34 1.5,8.67 1.5,9.03 C1.5,9.22 1.55,9.39 1.64,9.53 C1.56,9.67 1.5,9.84 1.5,10.03 L1.5,12.61 C1.5,13.16 3.5,13.16 3.5,12.61 L3.5,10.03 C3.5,9.84 3.45,9.67 3.36,9.53 C3.44,9.39 3.5,9.22 3.5,9.03 C3.5,8.65 3.3,8.34 3,8.17 L3,6.72 L7.89,8.25 C7.95,8.27 8.03,8.27 8.09,8.25 L15.73,5.87 C16.06,5.76 16.06,5.31 15.73,5.2 L8.1,2.81 L8.11,2.8 Z M8.02,6 C7.47,6 7.02,5.78 7.02,5.5 C7.02,5.22 7.47,5 8.02,5 C8.57,5 9.02,5.22 9.02,5.5 C9.02,5.78 8.57,6 8.02,6 L8.02,6 Z"
         id="Shape" />
    </g>
  </g>
  <path
     style="fill:#ffa000;fill-opacity:1"
     d="M 2.1911636,12.999582 C 1.8347799,12.954463 1.5778645,12.835154 1.5223253,12.688981 1.5070417,12.648756 1.5057347,12.514373 1.5084006,11.257366 l 0.00294,-1.3872226 0.028787,-0.09178 c 0.015833,-0.050479 0.045556,-0.1271175 0.066052,-0.1703083 l 0.037265,-0.078529 -0.036771,-0.069976 C 1.5864512,9.4210644 1.5570651,9.3475076 1.541373,9.2960915 1.5153419,9.2107987 1.5128505,9.1879849 1.5129397,9.0357236 1.5130231,8.8977837 1.5169024,8.8547588 1.5353216,8.7876529 1.5985246,8.5573887 1.754719,8.3365242 1.9409437,8.2140884 l 0.065836,-0.043285 0,-0.8870974 0,-0.8870973 L 1.1384615,6.1213479 C 0.66088657,5.9699542 0.24298985,5.8319829 0.20980216,5.814745 0.09496094,5.7550959 0.03114604,5.6482693 0.03075388,5.5150169 0.03055332,5.4468678 0.03511649,5.4269596 0.06472132,5.3668237 0.10160079,5.2919108 0.15599105,5.2375608 0.22700261,5.2046623 0.25073005,5.1936699 0.50482399,5.1116882 0.7916558,5.0224808 1.0784876,4.9332735 2.8062664,4.395196 4.6311642,3.8267531 7.5565049,2.9155298 7.9569469,2.7932203 8.0149583,2.7932203 c 0.039127,0 0.072473,0.00557 0.082265,0.013734 0.00906,0.00755 1.7225944,0.547844 3.8078619,1.200645 2.085267,0.652801 3.815809,1.1960255 3.845649,1.2071656 0.07289,0.027211 0.151633,0.099979 0.187723,0.1734737 0.02527,0.051466 0.02913,0.071425 0.0286,0.1481368 -4.8e-4,0.06977 -0.0056,0.098958 -0.02406,0.137013 -0.03631,0.07486 -0.08859,0.1285305 -0.160183,0.1644332 C 15.745175,5.8566999 14.861596,6.136862 13.704302,6.49687 12.597132,6.8412862 10.876923,7.3770732 9.8816167,7.687508 8.4621188,8.1302476 8.0573522,8.2528026 8.0041721,8.2559594 7.9399348,8.2597727 7.8988658,8.2482234 7.2219035,8.035972 6.8289439,7.9127655 5.8151239,7.5953889 4.96897,7.3306908 4.1228162,7.0659927 3.4274952,6.8461634 3.4238122,6.8421814 3.4201292,6.8381993 3.3292124,6.6659713 3.2217749,6.4594524 2.5619463,5.1911143 2.2561457,4.697424 2.21987,4.8419579 2.1924682,4.9511353 2.3644089,5.5183009 2.8112849,6.7928066 l 0.1863683,0.5315288 0,0.4239697 0,0.4239696 0.059974,0.039655 c 0.078772,0.052085 0.2022576,0.1717771 0.2580573,0.2501299 0.1577467,0.2215052 0.2133541,0.4994737 0.1544057,0.7718383 -0.015971,0.073794 -0.075947,0.2317074 -0.1022826,0.2693071 -0.012675,0.018096 -0.00976,0.029454 0.025596,0.099807 0.053689,0.1068244 0.080239,0.1971787 0.094198,0.3205643 0.00815,0.072047 0.010728,0.4997114 0.00857,1.4224464 l -0.00308,1.319427 -0.023032,0.04306 c -0.068773,0.12857 -0.2758133,0.227654 -0.5871375,0.280987 -0.136625,0.02341 -0.5400906,0.02929 -0.6917569,0.01009 z M 8.3007101,5.9846816 C 8.6336194,5.9369098 8.9035112,5.7972682 8.9923407,5.626833 9.0318772,5.5509749 9.0321723,5.4493133 8.9930729,5.3743522 8.9044017,5.2043504 8.6596752,5.0746878 8.321982,5.0187905 8.1697295,4.9935887 7.8654206,4.993453 7.7173398,5.0185214 7.3798278,5.0756573 7.1334599,5.2063795 7.0469454,5.3742309 c -0.053855,0.1044866 -0.031552,0.235224 0.057286,0.3358023 0.1232834,0.139576 0.4015513,0.2508268 0.7121958,0.2847339 0.1072907,0.011711 0.3706046,0.00623 0.4842825,-0.010085 l 5e-7,-3e-7 z"
     id="path4200"
     inkscape:connector-curvature="0" />
  <path
     style="fill:#ffa000;fill-opacity:1"
     d="m 7.4816167,11.986435 c -0.03442,-0.002 -0.1517601,-0.0086 -0.2607562,-0.01464 C 6.6977622,11.942701 6.1603542,11.872164 5.7463579,11.778261 4.8405061,11.572796 4.2801799,11.254346 4.0808795,10.831719 4.0324475,10.729017 4.0152241,10.655021 4.0033097,10.498461 3.9878887,10.295824 3.9246928,10.040022 3.7630492,9.5259452 3.6404445,9.1360242 3.2938914,8.1229352 3.0444032,7.4251058 l -0.042578,-0.1190924 0,-0.2914108 c 0,-0.2670039 0.00145,-0.2908553 0.017281,-0.2847794 0.0095,0.00365 0.1027094,0.033138 0.2071221,0.065536 l 0.1898412,0.058905 0.290664,0.5749617 0.2906641,0.5749617 1.8099062,0.5621809 c 0.9954484,0.3091996 1.8662295,0.5801517 1.9350692,0.6021157 0.1524374,0.048637 0.2661654,0.059608 0.3754889,0.036223 0.05415,-0.011583 3.7857242,-1.1650332 3.8620322,-1.1937756 0.01071,-0.00403 0.01272,0.2506868 0.01043,1.3182406 l -0.0028,1.3232391 -0.02466,0.07301 c -0.11522,0.341193 -0.415835,0.602833 -0.940363,0.818445 -0.532232,0.218777 -1.2451013,0.359196 -2.1508677,0.42367 -0.2150647,0.01531 -1.2164573,0.02892 -1.3899806,0.0189 z"
     id="path4202"
     inkscape:connector-curvature="0" />
  <path
     style="fill:#d84315;fill-opacity:1"
     d="M 2.2143416,12.9982 C 1.8491944,12.946866 1.6023826,12.840271 1.5350865,12.704837 1.5162358,12.6669 1.515515,12.61359 1.515515,11.257366 l 0,-1.4080831 0.029706,-0.078227 c 0.016338,-0.043025 0.045894,-0.1145095 0.06568,-0.1588547 l 0.035975,-0.080628 -0.036228,-0.075826 C 1.530122,9.2872038 1.5259453,9.2664923 1.5259453,9.0357236 c 0,-0.1908818 0.00207,-0.214808 0.024385,-0.2816167 0.030094,-0.090106 0.078312,-0.1892161 0.1320134,-0.2713474 0.051975,-0.079491 0.1909317,-0.2196219 0.2686344,-0.2709035 l 0.059974,-0.039581 0,-0.88976 0,-0.8897599 -0.1538462,-0.048461 C 0.9536749,6.0597173 0.25318399,5.8318274 0.2026672,5.8060574 0.19044406,5.7998221 0.15809199,5.7730889 0.13077372,5.7466504 0.06627057,5.6842247 0.03963496,5.6149492 0.03963496,5.5096112 c 0,-0.065529 0.0048908,-0.087822 0.03031743,-0.1381915 C 0.09830894,5.3152457 0.16778823,5.2393137 0.21283666,5.2152655 0.2424294,5.1994681 0.55259906,5.1015959 2.1152543,4.6149693 7.9540289,2.7967159 7.9416353,2.8005222 8.0239896,2.8002932 c 0.022946,-6.38e-5 0.114472,0.023894 0.2033898,0.053239 0.2598296,0.08575 1.1603965,0.3690465 5.2411996,1.6487534 2.067949,0.6484921 2.280877,0.7160621 2.319246,0.7359855 0.05227,0.02714 0.125378,0.1050286 0.150621,0.1604633 0.0324,0.071144 0.03141,0.2071245 -0.002,0.2761382 -0.03675,0.075915 -0.103974,0.1367062 -0.186095,0.1682857 C 15.614739,5.89531 14.84111,6.1384869 11.549413,7.1636516 8.1668715,8.2171092 8.0645584,8.2482399 7.9848474,8.2482399 c -0.025243,0 -0.096477,-0.014202 -0.158296,-0.031561 C 7.681427,8.1759287 4.2031777,7.0881026 3.6722248,6.9174089 L 3.4299777,6.83953 3.4047278,6.7955147 C 3.3908405,6.7713063 3.282167,6.5661017 3.1632313,6.3395046 2.6930443,5.4437009 2.4469834,5.0169607 2.3137336,4.8662321 c -0.05189,-0.058696 -0.088809,-0.066491 -0.098799,-0.020861 -0.02514,0.114824 0.152284,0.6902553 0.665928,2.1597776 l 0.1105328,0.3162315 6.25e-5,0.4243161 6.26e-5,0.4243162 0.084554,0.062337 C 3.4740008,8.5257172 3.5964819,9.0107575 3.385383,9.4572496 l -0.031629,0.066898 0.02345,0.05305 c 0.056434,0.1276662 0.075532,0.1786213 0.091476,0.2440708 0.015165,0.062249 0.017377,0.2185567 0.020607,1.4559267 l 0.00362,1.38619 -0.037058,0.05581 c -0.077189,0.116255 -0.2345569,0.194251 -0.5136033,0.254555 -0.087577,0.01893 -0.1443508,0.02255 -0.3993525,0.02545 -0.1634941,0.0019 -0.3113429,0.0014 -0.3285528,-0.001 l 3.1e-6,0 z M 8.3552421,5.9801587 C 8.5739589,5.9411781 8.7887912,5.84758 8.9014631,5.742181 9.0585211,5.5952608 9.066998,5.4306766 8.9252278,5.2807755 8.810928,5.1599203 8.6263868,5.0744522 8.3684342,5.0229029 8.269369,5.0031057 8.2202517,4.9999868 8.0135593,5.0003679 7.8060458,5.0007507 7.7588805,5.003955 7.664146,5.0241077 7.4276625,5.0744144 7.2523057,5.1517918 7.1385449,5.256033 c -0.09441,0.086509 -0.1247044,0.1503277 -0.1193894,0.2515037 0.00492,0.09371 0.032435,0.1539097 0.1020632,0.2233213 0.1194014,0.1190305 0.3481676,0.2142697 0.6228066,0.2592847 0.118652,0.019448 0.4791143,0.01356 0.6112168,-0.00998 z"
     id="path4167"
     inkscape:connector-curvature="0" />
  <path
     style="fill:#d84315;fill-opacity:1"
     d="M 7.2677966,11.971166 C 5.7155057,11.875396 4.6342557,11.544017 4.2201495,11.037132 4.0911698,10.879254 4.0336537,10.742803 4.0134671,10.546797 3.9888763,10.30803 3.94877,10.127876 3.836031,9.7497699 3.7308022,9.3968518 3.4444168,8.5465957 3.1370879,7.6746619 L 2.9992558,7.2836132 3.0037395,7.0152265 c 0.00247,-0.1476126 0.00716,-0.2710591 0.010422,-0.2743254 0.00327,-0.00327 0.094206,0.021723 0.2020889,0.055532 l 0.1961501,0.061471 0.2892707,0.5717063 c 0.1590988,0.3144384 0.2955329,0.575037 0.3031868,0.579108 0.00765,0.00407 0.2368626,0.076447 0.5093528,0.1608357 0.2724903,0.084389 1.1201404,0.3477286 1.8836671,0.5851999 0.7635268,0.2374713 1.4206324,0.4393812 1.4602347,0.4486885 0.051686,0.012147 0.099965,0.015408 0.1710917,0.011554 0.09369,-0.00508 0.1570396,-0.023262 1.1629726,-0.333868 0.5851369,-0.1806749 1.4440677,-0.4468131 1.9087357,-0.5914183 0.464667,-0.1446052 0.853116,-0.2652838 0.86322,-0.2681746 0.01748,-0.005 0.01824,0.059234 0.01564,1.3284552 l -0.0027,1.3337117 -0.03454,0.08344 c -0.05598,0.13523 -0.121457,0.230243 -0.241241,0.350077 -0.255224,0.255332 -0.670629,0.457228 -1.252247,0.608618 -0.5168887,0.134542 -1.1854374,0.224477 -1.8305083,0.246246 -0.3312419,0.01118 -1.1638215,0.01061 -1.3507171,-9.19e-4 l 0,-10e-7 z"
     id="path4169"
     inkscape:connector-curvature="0" />
  <path
     style="fill:#ffa000;fill-opacity:1"
     d="M 2.1100391,12.978743 C 1.824536,12.924253 1.6288379,12.836563 1.5550131,12.730042 l -0.029068,-0.04194 -0.00302,-1.424624 -0.00302,-1.4246243 0.064416,-0.1540371 0.064415,-0.154037 -0.04296,-0.092464 c -0.066786,-0.1437442 -0.07462,-0.1866724 -0.07462,-0.4088992 0,-0.1683056 0.00299,-0.2046366 0.021898,-0.2663875 0.027631,-0.090221 0.092239,-0.219887 0.1499613,-0.3009683 0.050745,-0.07128 0.1856458,-0.2036991 0.2587712,-0.2540107 L 2.0110681,8.174146 2.0084023,7.281057 2.0057367,6.3879681 1.7293351,6.3004859 C 0.92545017,6.0460532 0.25177534,5.8258444 0.20954086,5.8037 0.16247917,5.7790247 0.09052125,5.7016971 0.06754506,5.6511082 0.05154918,5.6158886 0.04615023,5.582041 0.04591688,5.515515 0.04553474,5.4065673 0.07100114,5.3498884 0.1567893,5.2687535 0.22778836,5.2016055 -0.16380374,5.3279912 3.6850065,4.1300274 7.9386008,2.8060723 7.9627177,2.7987478 8.039635,2.807479 c 0.050222,0.0057 0.051896,0.00621 0.803129,0.2443848 0.2724903,0.086392 1.462321,0.4605086 2.644068,0.8313711 4.19843,1.3175749 4.246615,1.3328204 4.302945,1.3614221 0.04247,0.021564 0.114075,0.095741 0.142007,0.1471098 0.01487,0.027347 0.0191,0.058158 0.01914,0.1396171 0,0.091613 -0.0032,0.1109147 -0.02653,0.1562409 -0.01521,0.02958 -0.04932,0.070246 -0.07969,0.095009 -0.07711,0.06286 -0.06672,0.059496 -3.278335,1.0611841 C 9.1732255,7.9021222 8.2323008,8.1919186 8.0581604,8.2323045 7.9664628,8.2535706 7.9400606,8.2479489 7.5129075,8.1162055 6.7801505,7.890207 4.290944,7.1107881 3.662566,6.9105886 3.4361844,6.838464 3.4311007,6.8362207 3.4107297,6.7994539 3.3992947,6.7788155 3.2856407,6.5647979 3.158165,6.3238592 2.6622793,5.386597 2.4466027,5.0133634 2.3186348,4.8710325 2.2618704,4.8078967 2.2245117,4.7985296 2.2129645,4.8445374 2.1875502,4.945796 2.3764015,5.565458 2.8285985,6.8645659 l 0.1627966,0.4676951 0,0.4204962 0,0.4204964 0.071313,0.052867 c 0.099636,0.073863 0.2301775,0.2130755 0.28269,0.3014671 0.1018592,0.1714545 0.142194,0.3332171 0.1331216,0.5338829 -0.00656,0.1451849 -0.027146,0.2330228 -0.087843,0.3748844 -0.03125,0.073037 -0.03572,0.092246 -0.026701,0.1147328 0.00596,0.014855 0.030565,0.075467 0.054683,0.1346926 0.035642,0.087525 0.04548,0.1265768 0.052551,0.208605 0.00479,0.055507 0.011749,0.7003958 0.015475,1.4330858 l 0.00677,1.332166 -0.031115,0.04522 c -0.083608,0.121521 -0.2251988,0.19653 -0.4908796,0.260051 -0.07934,0.01897 -0.1295588,0.02178 -0.4390018,0.02459 -0.2595431,0.0024 -0.3681922,-4.11e-4 -0.4224251,-0.01076 z M 8.2432818,5.9940259 C 8.5097158,5.974281 8.8034372,5.8538355 8.9309141,5.7120505 9.0477186,5.5821357 9.0575743,5.4506442 8.9600879,5.3228204 8.8510723,5.1798796 8.6497203,5.0768593 8.3683243,5.0200488 8.2656739,4.9993249 7.9767481,4.991419 7.8049544,5.0046333 7.4709012,5.0303286 7.1333457,5.1932077 7.0444512,5.3715956 c -0.032087,0.064391 -0.035603,0.1423906 -0.010263,0.2277181 0.022325,0.075177 0.1331149,0.1869117 0.2407072,0.2427603 0.1384508,0.071866 0.3625427,0.1401621 0.5144135,0.156776 0.063312,0.00693 0.334274,0.00405 0.4539728,-0.00482 z"
     id="path4205"
     inkscape:connector-curvature="0" />
  <path
     style="fill:#ffa000;fill-opacity:1"
     d="M 7.0696219,11.954724 C 5.8781138,11.860085 4.9834059,11.623871 4.4831568,11.271866 4.3319169,11.165444 4.1701067,10.988921 4.1023299,10.856412 4.0622623,10.778077 4.0332937,10.667023 4.0133694,10.515373 3.9794541,10.257234 3.9417632,10.093988 3.8306815,9.7241199 3.7526413,9.4642697 3.4287749,8.5003427 3.1946293,7.831031 l -0.1952114,-0.5580171 0.0076,-0.2633648 c 0.00511,-0.1773195 0.011285,-0.2633649 0.018887,-0.2633649 0.00621,0 0.091338,0.023934 0.1891743,0.053186 0.1142379,0.034156 0.1843106,0.060564 0.1958454,0.073807 0.00988,0.011342 0.086812,0.1575519 0.1709636,0.324911 0.2216962,0.4409075 0.4000746,0.781482 0.4197638,0.8014468 0.00942,0.00955 0.099264,0.043323 0.1996555,0.075047 0.2406256,0.07604 2.1978929,0.6835745 2.821382,0.8757549 0.2696219,0.083107 0.570013,0.1757301 0.6675359,0.20583 0.2289187,0.070654 0.3038235,0.076508 0.4693611,0.036678 0.1567322,-0.037711 0.8651664,-0.254756 3.2725572,-1.0026219 0.291171,-0.090454 0.532892,-0.1609705 0.537158,-0.1567045 0.0043,0.00427 0.0064,0.6046269 0.0047,1.3341354 l -0.0031,1.3263792 -0.03915,0.08876 c -0.05635,0.127772 -0.115012,0.209336 -0.240443,0.33433 -0.271127,0.270182 -0.696012,0.46991 -1.330911,0.62563 -0.4477713,0.109824 -1.0143589,0.188353 -1.5749673,0.218292 -0.2965823,0.01584 -1.491832,0.01136 -1.7157758,-0.0064 z"
     id="path4207"
     inkscape:connector-curvature="0" />
</svg>
