<?xml version="1.0" encoding="UTF-8" standalone="no"?>
<svg
   xmlns:dc="http://purl.org/dc/elements/1.1/"
   xmlns:cc="http://creativecommons.org/ns#"
   xmlns:rdf="http://www.w3.org/1999/02/22-rdf-syntax-ns#"
   xmlns:svg="http://www.w3.org/2000/svg"
   xmlns="http://www.w3.org/2000/svg"
   xmlns:sodipodi="http://sodipodi.sourceforge.net/DTD/sodipodi-0.dtd"
   xmlns:inkscape="http://www.inkscape.org/namespaces/inkscape"
   width="16px"
   height="16px"
   viewBox="0 0 16 16"
   version="1.1"
   id="svg4211"
   inkscape:version="0.91 r13725"
   sodipodi:docname="organization-2.svg">
  <metadata
     id="metadata4224">
    <rdf:RDF>
      <cc:Work
         rdf:about="">
        <dc:format>image/svg+xml</dc:format>
        <dc:type
           rdf:resource="http://purl.org/dc/dcmitype/StillImage" />
      </cc:Work>
    </rdf:RDF>
  </metadata>
  <sodipodi:namedview
     pagecolor="#ffffff"
     bordercolor="#666666"
     borderopacity="1"
     objecttolerance="10"
     gridtolerance="10"
     guidetolerance="10"
     inkscape:pageopacity="0"
     inkscape:pageshadow="2"
     inkscape:window-width="3078"
     inkscape:window-height="1752"
     id="namedview4222"
     showgrid="false"
     inkscape:zoom="95.875"
     inkscape:cx="8.6466754"
     inkscape:cy="8"
     inkscape:window-x="122"
     inkscape:window-y="48"
     inkscape:window-maximized="1"
     inkscape:current-layer="svg4211" />
  <!-- Generator: Sketch 40.3 (33839) - http://www.bohemiancoding.com/sketch -->
  <title
     id="title4213">organization</title>
  <desc
     id="desc4215">Created with Sketch.</desc>
  <defs
     id="defs4217" />
  <g
     id="Octicons"
     stroke="none"
     stroke-width="1"
     fill="none"
     fill-rule="evenodd">
    <g
       id="organization"
       fill="#deffff">
      <path
         d="M16,12.999 C16,13.438 15.55,13.999 15,13.999 L7.995,13.999 C7.456,13.999 7.001,13.552 7,13 L1,13 C0.46,13 0,12.439 0,12 C0,9.366 3,8 3,8 C3,8 3.229,7.591 3,7 C2.159,6.379 1.942,6.41 2,4 C2.058,1.581 3.367,1 4.5,1 C5.633,1 6.942,1.58 7,4 C7.058,6.41 6.841,6.379 6,7 C5.771,7.59 6,8 6,8 C6,8 7.549,8.711 8.42,10.088 C9.196,9.369 10,8.999 10,8.999 C10,8.999 10.229,8.59 10,7.999 C9.159,7.379 8.942,7.409 9,4.999 C9.058,2.58 10.367,1.999 11.5,1.999 C12.633,1.999 13.937,2.58 13.995,4.999 C14.054,7.409 13.837,7.379 12.995,7.999 C12.766,8.589 12.995,8.999 12.995,8.999 C12.995,8.999 16,10.365 16,12.999"
         id="Shape" />
    </g>
  </g>
  <path
     style="fill:#ffa000;fill-opacity:1"
     d="m 7.8735023,13.994922 c -0.1038222,-0.01366 -0.1924804,-0.04035 -0.29558,-0.08897 -0.3166813,-0.14934 -0.531759,-0.446119 -0.5739697,-0.792005 -0.0063,-0.05163 -0.011469,-0.09739 -0.011485,-0.101694 -2.09e-5,-0.0043 -1.3626615,-0.0078 -3.0281008,-0.0078 -2.0704247,0 -3.04764428,-0.0035 -3.08996087,-0.01096 C 0.66376209,12.956162 0.47837518,12.852496 0.30980159,12.677754 0.16905254,12.531854 0.07395666,12.371816 0.02281739,12.194786 0.00182925,12.12213 -7.4770378e-4,12.091573 4.9724016e-4,11.930117 0.00966979,10.74054 0.69288725,9.5844929 1.9389831,8.6500783 2.2270862,8.4340373 2.5534043,8.2268095 2.8459419,8.0741154 L 3.001923,7.9926988 3.0254651,7.9337114 C 3.0684854,7.8259196 3.0934657,7.6726243 3.0931875,7.5181226 3.0928996,7.3579781 3.0747812,7.2398259 3.0287971,7.098213 2.9978587,7.0029352 2.9967485,7.0012908 2.9323866,6.9554152 2.5678818,6.6956039 2.3934978,6.5472334 2.2943024,6.4125163 2.1300058,6.1893857 2.0452159,5.8802178 2.0068202,5.3642764 1.976984,4.9633513 1.9861675,3.9034809 2.0225003,3.5546284 2.139735,2.4289914 2.5449042,1.6883064 3.263644,1.2857085 3.3721141,1.2249497 3.5713145,1.1447121 3.7173403,1.1029606 4.0041466,1.0209573 4.2411758,0.9934968 4.5866161,1.0022526 c 0.4130588,0.01047 0.7364679,0.082689 1.0518552,0.2348857 0.8134936,0.3925683 1.2673936,1.2324468 1.3536503,2.5047396 0.018005,0.2655698 0.025204,1.1025324 0.011972,1.3916742 -0.036933,0.8069978 -0.1343285,1.1328338 -0.4249004,1.4215005 -0.071709,0.071239 -0.3662237,0.3010042 -0.5334301,0.416155 -0.041003,0.028238 -0.046845,0.038321 -0.075158,0.129705 -0.047458,0.1531806 -0.062927,0.2569163 -0.062775,0.4209697 1.491e-4,0.1609375 0.019664,0.2824664 0.064714,0.4030199 l 0.025335,0.067797 0.1400434,0.073275 c 0.4406822,0.2305794 0.884244,0.5342658 1.2925858,0.8849742 0.1523447,0.1308428 0.486401,0.4677136 0.6063937,0.6115028 0.1215309,0.1456324 0.2498968,0.3158414 0.3226838,0.4278683 0.029737,0.045768 0.058193,0.083214 0.063237,0.083214 0.00504,0 0.036118,-0.02477 0.069054,-0.05504 C 8.8418765,9.6967989 9.3647935,9.3312186 9.8393259,9.0764681 l 0.1653081,-0.088745 0.02158,-0.059442 c 0.09098,-0.2505949 0.09325,-0.5329736 0.0066,-0.8208498 -0.01381,-0.045893 -0.03119,-0.091162 -0.03861,-0.1005963 C 9.986776,7.9974004 9.9079531,7.9368898 9.8190352,7.8723674 9.5811704,7.699763 9.48763,7.6229466 9.3886279,7.5189124 9.2033037,7.3241684 9.1113369,7.1171232 9.0529835,6.7632751 9.0172703,6.546715 9.007866,6.4307403 8.9936693,6.0318123 8.9794663,5.6327072 8.9943316,4.8379317 9.021079,4.5663625 9.1569637,3.1867013 9.7618076,2.3403826 10.798663,2.0791046 c 0.230145,-0.057994 0.420836,-0.079767 0.699642,-0.079883 0.381322,-1.589e-4 0.677768,0.050728 0.978676,0.1679956 0.521574,0.2032632 0.890857,0.5519196 1.154646,1.0901495 0.211015,0.4305532 0.32706,0.9365728 0.358794,1.5645371 0.02766,0.5473927 0.02077,1.336234 -0.01476,1.6897487 -0.02963,0.2947971 -0.0753,0.5060834 -0.145244,0.671919 -0.107257,0.2543153 -0.248314,0.3971402 -0.74834,0.7577146 l -0.08781,0.06332 -0.02843,0.093134 c -0.09107,0.2983584 -0.08966,0.5832859 0.0042,0.8340148 l 0.02068,0.05528 0.174766,0.093803 c 0.98876,0.5307014 1.811935,1.267554 2.292108,2.051748 0.339285,0.554104 0.516151,1.121251 0.542864,1.74078 0.0095,0.21962 -0.01437,0.343871 -0.09821,0.511772 -0.144189,0.288778 -0.405088,0.510731 -0.695945,0.592054 l -0.08344,0.02333 -3.59322,0.0013 c -1.9762714,7.3e-4 -3.6215134,-0.0024 -3.6560937,-0.0069 z"
     id="path4226"
     inkscape:connector-curvature="0" />
  <path
     style="fill:#d84315;fill-opacity:1"
     d="M 7.8007823,13.978124 C 7.4890843,13.912027 7.1933433,13.664919 7.0786099,13.374707 7.0359737,13.266861 7.0234304,13.2181 7.0088494,13.10352 l -0.011946,-0.09387 -3.0504726,-0.0069 -3.0504726,-0.0069 -0.0876947,-0.0224 C 0.62752451,12.927229 0.48964708,12.844577 0.33219803,12.688019 0.18742259,12.544062 0.10272356,12.411433 0.03817586,12.227612 -0.02887808,12.036654 0.00891968,11.518988 0.11968115,11.111343 0.18181901,10.882651 0.2521871,10.701102 0.3743733,10.454237 0.59299017,10.012545 0.87454092,9.6292685 1.2709308,9.2337497 1.7269857,8.7786968 2.3203393,8.3488392 2.9107744,8.0457579 l 0.09565,-0.049099 0.026793,-0.074992 C 3.0686473,7.8225045 3.0789132,7.7714078 3.0909386,7.6343712 3.1077335,7.4429841 3.0799586,7.220597 3.0188678,7.0573173 2.9972203,6.999459 2.9930091,6.9954928 2.8068654,6.8576472 2.362139,6.5283128 2.2423726,6.3911921 2.1388083,6.0927871 2.0324803,5.7864194 1.9964556,5.4160318 1.9964316,4.6289439 1.996409,3.887288 2.0144845,3.5644405 2.076143,3.2052151 2.2218628,2.3562446 2.5645701,1.7534874 3.1101066,1.3866695 3.3604752,1.218322 3.6605701,1.1032364 4.016343,1.0391303 c 0.1218501,-0.021956 0.164249,-0.024123 0.4728356,-0.024163 0.277888,-3.65e-5 0.3615413,0.00343 0.4641461,0.019247 C 5.7113926,1.1510546 6.2824598,1.5608708 6.61632,2.2276331 6.8429297,2.6802018 6.9616857,3.2026449 6.9935926,3.8873686 7.0072806,4.1811141 6.9998001,5.2583152 6.9828654,5.432073 6.9263943,6.0114955 6.8406651,6.262053 6.6127179,6.5138881 6.5564031,6.5761045 6.3706444,6.727057 6.1528251,6.8876093 5.9858773,7.0106647 5.9906481,7.0039677 5.9426909,7.1825905 c -0.022538,0.083946 -0.027964,0.1311168 -0.032367,0.2814032 -0.00597,0.2038083 0.00396,0.2897111 0.050332,0.4352254 l 0.030038,0.094265 0.1540659,0.081839 c 0.4122939,0.2190091 0.8312559,0.5018376 1.207521,0.8151607 0.1535425,0.1278577 0.5550908,0.5252898 0.6736579,0.6667522 0.1011313,0.1206597 0.2270674,0.285787 0.3162007,0.4146023 0.038702,0.055933 0.075884,0.1016207 0.082627,0.1015307 0.00674,-9.4e-5 0.052156,-0.03568 0.1009169,-0.07909 0.3779053,-0.3364278 0.9444062,-0.7242654 1.4019327,-0.9597906 0.075257,-0.038741 0.079433,-0.042843 0.099579,-0.097827 0.09392,-0.2563364 0.09588,-0.5448532 0.0057,-0.8404846 L 10.006188,8.0086035 9.774411,7.834529 C 9.3477941,7.5141221 9.2078234,7.3417396 9.1152124,7.0226858 9.0851276,6.919041 9.0436841,6.6910608 9.0270452,6.5376793 8.9820359,6.1227729 8.9850483,4.9548744 9.0322644,4.5142112 9.0868474,4.0047945 9.2103881,3.5595412 9.3957288,3.2042482 9.7497176,2.525662 10.316375,2.134982 11.106815,2.0245465 c 0.144394,-0.020174 0.590364,-0.022893 0.746119,-0.00455 0.69221,0.081524 1.24173,0.4015151 1.595026,0.9288012 0.135667,0.2024772 0.256359,0.4546486 0.33894,0.7081665 0.170069,0.5221048 0.224059,1.0625002 0.211213,2.114091 -0.0078,0.6374325 -0.03176,0.9187478 -0.10149,1.1908244 -0.09926,0.387315 -0.230949,0.5475058 -0.778626,0.9471632 l -0.127374,0.092949 -0.02211,0.072781 c -0.09045,0.2977822 -0.09521,0.5771226 -0.01403,0.8229615 0.01624,0.049164 0.03563,0.087323 0.0493,0.097 0.0124,0.00877 0.114413,0.066633 0.226703,0.1285753 1.150772,0.6348004 2.037892,1.5192655 2.454309,2.4469635 0.141227,0.314626 0.228428,0.61321 0.279568,0.957262 0.03001,0.201917 0.03332,0.574101 0.006,0.67295 -0.06471,0.233995 -0.258309,0.495082 -0.467986,0.631121 -0.115213,0.07475 -0.158622,0.096 -0.271506,0.132886 l -0.09429,0.03081 -3.631393,-8.55e-4 c -3.1689285,-7.4e-4 -3.6406911,-0.0028 -3.7044047,-0.01633 l 0,6e-6 z"
     id="path4146"
     inkscape:connector-curvature="0" />
  <path
     style="fill:#ffa000;fill-opacity:1"
     d="m 8.8219036,13.985019 -1.0273794,-0.0056 -0.073012,-0.02434 C 7.6136973,13.919193 7.4763669,13.843632 7.3827765,13.76875 7.1848834,13.610417 7.0623041,13.401262 7.0216651,13.152596 c -0.0091,-0.05568 -0.018397,-0.111188 -0.020663,-0.123363 l -0.00412,-0.02214 -3.0483756,-0.0074 C 0.95073977,12.992389 0.89874511,12.99192 0.81668844,12.971464 0.71847517,12.94698 0.58050775,12.884648 0.50518037,12.83073 0.28362363,12.67214 0.11009488,12.44221 0.03802193,12.211734 0.01556972,12.139936 0.01361656,12.115935 0.01425539,11.919687 0.01499894,11.691268 0.02976652,11.548574 0.07732845,11.310233 0.19356541,10.72775 0.50751442,10.10908 0.95544415,9.579812 1.4433447,9.003315 2.1387259,8.4556308 2.87372,8.0689721 l 0.1380593,-0.072629 0.030632,-0.095694 C 3.0809907,7.7801234 3.0957143,7.6748191 3.095636,7.5199754 3.0955317,7.3182029 3.0460005,7.0736138 2.9911067,7.0038277 2.9794921,6.9890621 2.876942,6.9064621 2.7632174,6.8202719 2.3630483,6.5169897 2.2392383,6.3717186 2.1425685,6.0920393 2.0356902,5.7828258 2.0005273,5.4071111 2.0007577,4.5767927 2.000976,3.7903677 2.0280104,3.426981 2.1166397,3.0191504 2.3314858,2.0305295 2.8367373,1.4030522 3.6282827,1.1418242 3.7843268,1.0903261 3.9615449,1.0483455 4.0998488,1.0301164 4.2414423,1.0114537 4.8882876,1.022324 5.0090876,1.0453963 5.771105,1.190938 6.3078507,1.5960965 6.6336798,2.271708 6.8407662,2.7011045 6.9482988,3.1785814 6.9872035,3.8414602 7.0048352,4.1418781 6.9935278,5.3228156 6.9711745,5.515515 6.9255703,5.9086508 6.8679627,6.125034 6.760117,6.3082794 6.6591013,6.4799195 6.5648422,6.5705503 6.1918445,6.8546775 5.9915339,7.0072621 5.9818773,7.0194611 5.9432602,7.1687093 c -0.040248,0.1555516 -0.050031,0.452126 -0.019782,0.5997392 0.00529,0.025815 0.021704,0.087014 0.036477,0.1359979 l 0.026859,0.089062 0.1424476,0.076881 c 0.417315,0.2252309 0.8451661,0.5112494 1.1802572,0.7890017 0.2079629,0.1723776 0.5712167,0.5319538 0.74713,0.739566 0.029164,0.03442 0.1218306,0.1552803 0.2059249,0.2685789 0.084094,0.1132985 0.1568535,0.2059971 0.1616874,0.2059971 0.00988,0 0.036797,-0.0215 0.2212554,-0.1767448 0.3433381,-0.2889574 0.862979,-0.6386263 1.2614481,-0.8488345 0.1076416,-0.056785 0.1178796,-0.071241 0.1559906,-0.2202521 0.05974,-0.2335779 0.04944,-0.4747699 -0.03198,-0.7489691 l -0.02091,-0.07042 -0.1273241,-0.095789 C 9.3643342,7.5225185 9.2276485,7.3676086 9.1304577,7.059945 9.0982077,6.9578556 9.0566017,6.7454163 9.0361013,6.5781641 8.9898089,6.2004864 8.9868533,5.0394718 9.03098,4.5663625 9.1180944,3.6323539 9.4470776,2.9104677 9.9790509,2.4860148 10.260718,2.2612775 10.627771,2.1063857 11.043546,2.0368115 c 0.135443,-0.022665 0.579121,-0.032436 0.756789,-0.016667 0.180299,0.016002 0.397712,0.061672 0.574927,0.1207683 0.750387,0.2502348 1.24592,0.8418606 1.478424,1.7651163 0.111695,0.4435362 0.148631,0.9286061 0.138438,1.8180906 -0.0079,0.6919479 -0.02896,0.9611272 -0.09544,1.2213002 -0.101836,0.3985831 -0.236354,0.5640375 -0.782738,0.9627535 l -0.125162,0.091336 -0.02384,0.080037 c -0.07896,0.265116 -0.09086,0.5234041 -0.03432,0.744492 0.03927,0.1535304 0.04437,0.1596165 0.211968,0.2529125 0.643814,0.3583803 1.101962,0.6906993 1.53906,1.1163593 0.336769,0.327957 0.625385,0.691233 0.828796,1.043196 0.140076,0.242372 0.28097,0.577193 0.355518,0.84485 0.08735,0.313615 0.115015,0.515185 0.115251,0.839635 1.98e-4,0.272829 -0.0031,0.290589 -0.08425,0.45256 -0.138563,0.276599 -0.368909,0.481847 -0.653214,0.582041 l -0.112689,0.03971 -2.640896,-0.0024 c -1.452492,-0.0013 -3.1032168,-0.0049 -3.6682754,-0.0079 z"
     id="path4228"
     inkscape:connector-curvature="0" />
</svg>
