<?xml version="1.0" encoding="UTF-8" standalone="no"?>
<svg
   xmlns:dc="http://purl.org/dc/elements/1.1/"
   xmlns:cc="http://creativecommons.org/ns#"
   xmlns:rdf="http://www.w3.org/1999/02/22-rdf-syntax-ns#"
   xmlns:svg="http://www.w3.org/2000/svg"
   xmlns="http://www.w3.org/2000/svg"
   xmlns:sodipodi="http://sodipodi.sourceforge.net/DTD/sodipodi-0.dtd"
   xmlns:inkscape="http://www.inkscape.org/namespaces/inkscape"
   width="16px"
   height="16px"
   viewBox="0 0 16 16"
   version="1.1"
   id="svg3404"
   inkscape:version="0.91 r13725"
   sodipodi:docname="settings.svg">
  <metadata
     id="metadata3417">
    <rdf:RDF>
      <cc:Work
         rdf:about="">
        <dc:format>image/svg+xml</dc:format>
        <dc:type
           rdf:resource="http://purl.org/dc/dcmitype/StillImage" />
      </cc:Work>
    </rdf:RDF>
  </metadata>
  <sodipodi:namedview
     pagecolor="#ffffff"
     bordercolor="#666666"
     borderopacity="1"
     objecttolerance="10"
     gridtolerance="10"
     guidetolerance="10"
     inkscape:pageopacity="0"
     inkscape:pageshadow="2"
     inkscape:window-width="3078"
     inkscape:window-height="1752"
     id="namedview3415"
     showgrid="false"
     inkscape:zoom="95.875"
     inkscape:cx="5.8617992"
     inkscape:cy="8"
     inkscape:window-x="122"
     inkscape:window-y="48"
     inkscape:window-maximized="1"
     inkscape:current-layer="svg3404" />
  <!-- Generator: Sketch 40.3 (33839) - http://www.bohemiancoding.com/sketch -->
  <title
     id="title3406">settings</title>
  <desc
     id="desc3408">Created with Sketch.</desc>
  <defs
     id="defs3410" />
  <g
     id="Octicons"
     stroke="none"
     stroke-width="1"
     fill="none"
     fill-rule="evenodd">
    <g
       id="settings"
       fill="#000000">
      <path
         d="M4,7 L3,7 L3,2 L4,2 L4,7 L4,7 Z M3,14 L4,14 L4,11 L3,11 L3,14 L3,14 Z M8,14 L9,14 L9,8 L8,8 L8,14 L8,14 Z M13,14 L14,14 L14,12 L13,12 L13,14 L13,14 Z M14,2 L13,2 L13,8 L14,8 L14,2 L14,2 Z M9,2 L8,2 L8,4 L9,4 L9,2 L9,2 Z M5,8 L2,8 C1.45,8 1,8.45 1,9 C1,9.55 1.45,10 2,10 L5,10 C5.55,10 6,9.55 6,9 C6,8.45 5.55,8 5,8 L5,8 Z M10,5 L7,5 C6.45,5 6,5.45 6,6 C6,6.55 6.45,7 7,7 L10,7 C10.55,7 11,6.55 11,6 C11,5.45 10.55,5 10,5 L10,5 Z M15,9 L12,9 C11.45,9 11,9.45 11,10 C11,10.55 11.45,11 12,11 L15,11 C15.55,11 16,10.55 16,10 C16,9.45 15.55,9 15,9 L15,9 Z"
         id="Shape" />
    </g>
  </g>
  <path
     style="fill:#ffa000;stroke:none;stroke-width:1px;stroke-linecap:butt;stroke-linejoin:miter;stroke-opacity:1;fill-opacity:1"
     d="m 3.0018253,4.4985658 0,-2.4980443 0.4954368,0 0.4954367,0 0,2.4980443 0,2.4980444 -0.4954367,0 -0.4954368,0 0,-2.4980444 z"
     id="path3419"
     inkscape:connector-curvature="0" />
  <path
     style="fill:#ffa000;fill-opacity:1"
     d="m 8.0083442,2.9966102 0,-0.9960887 0.4954368,0 0.4954367,0 0,0.9960887 0,0.9960886 -0.4954367,0 -0.4954368,0 0,-0.9960886 z"
     id="path4221"
     inkscape:connector-curvature="0" />
  <path
     style="fill:#ffa000;fill-opacity:1"
     d="M 6.8562077,6.9851349 C 6.6483386,6.9544267 6.4399912,6.8464051 6.2918158,6.6925153 6.1648799,6.5606841 6.0951449,6.4408046 6.0409608,6.2612777 6.0155382,6.1770457 6.0125787,6.1508028 6.0121424,6.0057366 6.0117301,5.8686374 6.0153039,5.830595 6.0356585,5.755416 6.1336658,5.3934295 6.4113603,5.1239471 6.78553,5.0277201 6.8507337,5.0109514 6.9742808,5.009648 8.4985658,5.009648 l 1.6427642,0 0.09259,0.023587 c 0.360667,0.09188 0.631241,0.3625667 0.733988,0.7342944 0.01417,0.051246 0.01813,0.1047995 0.01763,0.2382072 -5.85e-4,0.1561843 -0.0032,0.1805695 -0.02873,0.2636959 -0.10792,0.3519036 -0.360371,0.5953243 -0.724986,0.6990528 l -0.08006,0.022775 -1.6166883,0.00153 c -0.8891786,8.417e-4 -1.6446674,-0.0026 -1.678864,-0.00766 z"
     id="path4223"
     inkscape:connector-curvature="0" />
  <path
     style="fill:#ffa000;fill-opacity:1"
     d="m 8.0083442,11.001825 0,-2.9934808 0.4954368,0 0.4954367,0 0,2.9934808 0,2.993481 -0.4954367,0 -0.4954368,0 0,-2.993481 z"
     id="path4225"
     inkscape:connector-curvature="0" />
  <path
     style="fill:#ffa000;fill-opacity:1"
     d="M 1.8023468,9.9753148 C 1.5019053,9.9081314 1.247708,9.7133401 1.1138485,9.4477184 1.0676432,9.3560317 1.0348455,9.2566002 1.0195667,9.1618874 1.0014816,9.0497784 1.0119878,8.8380629 1.0405441,8.7391632 1.1394827,8.3965066 1.3996259,8.1377565 1.7460753,8.0374105 l 0.082347,-0.023851 1.6688397,0 c 1.8430893,0 1.6968665,-0.00502 1.8704259,0.064278 0.2908551,0.1161392 0.5154844,0.3723388 0.5975087,0.681485 0.034067,0.1283987 0.034165,0.3536579 2.075e-4,0.4797914 C 5.8713203,9.588584 5.613887,9.8538963 5.2651894,9.9607591 l -0.078227,0.023974 -1.6636245,0.00171 c -1.2835476,0.00132 -1.6767309,-0.00123 -1.7209912,-0.011123 z"
     id="path4227"
     inkscape:connector-curvature="0" />
  <path
     style="fill:#ffa000;fill-opacity:1"
     d="m 3.0018253,12.498566 0,-1.496741 0.4954368,0 0.4954367,0 0,1.496741 0,1.49674 -0.4954367,0 -0.4954368,0 0,-1.49674 z"
     id="path4229"
     inkscape:connector-curvature="0" />
  <path
     style="fill:#ffa000;fill-opacity:1"
     d="M 11.806133,10.975379 C 11.59747,10.929812 11.433955,10.839031 11.287515,10.687449 11.102588,10.496028 11.009649,10.268962 11.008488,10.005737 11.007583,9.8005893 11.058582,9.6262666 11.167934,9.4607245 11.300458,9.2601061 11.47856,9.1262396 11.721512,9.04464 l 0.08866,-0.029777 1.689701,0 1.6897,0 0.08866,0.029777 c 0.242953,0.0816 0.421055,0.2154661 0.553578,0.4160845 0.110204,0.1668311 0.158281,0.330295 0.158763,0.5397975 6.14e-4,0.266593 -0.09122,0.493234 -0.278344,0.686927 -0.125932,0.130354 -0.26241,0.213825 -0.44142,0.269978 l -0.09166,0.02875 -1.653195,0.0019 c -1.38045,0.0016 -1.664185,-5.27e-4 -1.719812,-0.01267 z"
     id="path4231"
     inkscape:connector-curvature="0" />
  <path
     style="fill:#ffa000;fill-opacity:1"
     d="m 13.004433,4.9992177 0,-2.9986962 0.495437,0 0.495436,0 0,2.9986962 0,2.9986963 -0.495436,0 -0.495437,0 0,-2.9986963 z"
     id="path4233"
     inkscape:connector-curvature="0" />
  <path
     style="fill:#ffa000;fill-opacity:1"
     d="m 13.004433,12.999218 0,-0.996089 0.495437,0 0.495436,0 0,0.996089 0,0.996088 -0.495436,0 -0.495437,0 0,-0.996088 z"
     id="path4235"
     inkscape:connector-curvature="0" />
  <path
     style="fill:#ffa000;fill-opacity:1"
     d="m 11.808446,10.969591 c -0.07108,-0.01195 -0.210639,-0.06339 -0.28384,-0.104606 -0.11949,-0.06728 -0.268378,-0.203289 -0.343932,-0.31417 -0.05108,-0.07497 -0.113392,-0.21197 -0.138799,-0.305183 -0.01888,-0.06926 -0.0227,-0.110909 -0.0225,-0.24511 2.99e-4,-0.1945734 0.01819,-0.2749188 0.0964,-0.4328558 0.121786,-0.2459361 0.322355,-0.4185683 0.59874,-0.5153416 l 0.0921,-0.032246 1.693253,0 1.693253,0 0.0921,0.032246 c 0.454081,0.1589916 0.728181,0.5558915 0.698489,1.0114184 -0.01687,0.25877 -0.116929,0.467581 -0.312818,0.652795 -0.108129,0.102237 -0.204627,0.162635 -0.353365,0.22117 l -0.09666,0.03804 -1.679269,0.0015 c -0.923599,7.98e-4 -1.703514,-0.0026 -1.733145,-0.0076 z"
     id="path4237"
     inkscape:connector-curvature="0" />
  <path
     style="fill:#d84315;fill-opacity:1"
     d="m 3.0018253,4.4985658 0,-2.4980443 0.4954367,0 0.4954368,0 0,2.4980443 0,2.4980444 -0.4954368,0 -0.4954367,0 0,-2.4980444 z"
     id="path4198"
     inkscape:connector-curvature="0" />
  <path
     style="fill:#d84315;fill-opacity:1"
     d="M 1.8023468,9.9690085 C 1.7213402,9.9548582 1.5790897,9.8973449 1.4882119,9.8420007 1.4299105,9.8064954 1.3660287,9.7536646 1.2964681,9.6834264 1.1763212,9.5621094 1.1128289,9.4600163 1.0590673,9.3016949 1.0257083,9.2034567 1.0254194,9.2008646 1.0253566,8.9992177 L 1.0252933,8.7958279 1.0630539,8.6887877 C 1.1737653,8.3749531 1.4143374,8.1462532 1.7398564,8.0453853 l 0.088748,-0.0275 1.6843939,0.00339 c 1.8940047,0.00381 1.7159961,-0.00414 1.9033119,0.08496 0.2942362,0.1399516 0.5142381,0.429431 0.558632,0.7350507 0.01566,0.1078067 0.00763,0.3175731 -0.015362,0.4015236 -0.092542,0.3378328 -0.358684,0.6103587 -0.6980977,0.7148425 L 5.1899799,9.979661 3.5196314,9.9784342 C 2.6009397,9.9777595 1.8281616,9.9735179 1.8023468,9.9690085 Z"
     id="path4200"
     inkscape:connector-curvature="0" />
  <path
     style="fill:#d84315;fill-opacity:1"
     d="m 3.0018253,12.498566 0,-1.496741 0.4954367,0 0.4954368,0 0,1.496741 0,1.49674 -0.4954368,0 -0.4954367,0 0,-1.49674 z"
     id="path4202"
     inkscape:connector-curvature="0" />
  <path
     style="fill:#d84315;fill-opacity:1"
     d="m 8.0083442,11.001825 0,-2.9934808 0.4954367,0 0.4954368,0 0,2.9934808 0,2.993481 -0.4954368,0 -0.4954367,0 0,-2.993481 z"
     id="path4204"
     inkscape:connector-curvature="0" />
  <path
     style="fill:#d84315;fill-opacity:1"
     d="M 6.8036505,6.9704817 C 6.6649482,6.9393644 6.5127051,6.8689434 6.4049391,6.7860551 6.2851772,6.6939402 6.1512919,6.5275103 6.0986474,6.4053107 6.0356695,6.2591247 6.0239949,6.2051083 6.01905,6.0370274 6.0136501,5.8534776 6.0250116,5.7785686 6.0786013,5.6443941 6.2105568,5.3140126 6.5377906,5.0564908 6.866232,5.0245557 c 0.05163,-0.00502 0.8121977,-0.00925 1.6901511,-0.00941 l 1.5962789,-2.826e-4 0.09342,0.026633 c 0.3395,0.096787 0.592363,0.3432647 0.70566,0.6878387 0.02181,0.066335 0.02397,0.091611 0.02362,0.2764015 l -3.9e-4,0.2033899 -0.03438,0.093872 C 10.81835,6.636759 10.600907,6.8441881 10.258546,6.9536311 l -0.10182,0.032549 -1.6452471,-8.292e-4 C 7.1729339,6.9846761 6.8545658,6.9819043 6.8036505,6.9704817 Z"
     id="path4206"
     inkscape:connector-curvature="0" />
  <path
     style="fill:#d84315;fill-opacity:1"
     d="m 8.0083442,2.9966102 0,-0.9960887 0.4954367,0 0.4954368,0 0,0.9960887 0,0.9960886 -0.4954368,0 -0.4954367,0 0,-0.9960886 z"
     id="path4208"
     inkscape:connector-curvature="0" />
  <path
     style="fill:#d84315;fill-opacity:1"
     d="m 13.004433,4.9992177 0,-2.9986962 0.495437,0 0.495436,0 0,2.9986962 0,2.9986963 -0.495436,0 -0.495437,0 0,-2.9986963 z"
     id="path4210"
     inkscape:connector-curvature="0" />
  <path
     style="fill:#d84315;fill-opacity:1"
     d="m 11.812852,10.97023 c -0.295901,-0.0501 -0.592964,-0.289334 -0.72064,-0.580362 -0.11708,-0.266876 -0.100703,-0.607649 0.04143,-0.862017 0.125039,-0.2237803 0.321709,-0.3847798 0.580882,-0.4755264 l 0.0921,-0.032246 1.693254,0 1.693253,0 0.0921,0.032173 c 0.479291,0.1674372 0.756112,0.598575 0.692569,1.0786487 -0.0299,0.225929 -0.11295,0.388597 -0.287565,0.563272 -0.126446,0.12649 -0.207016,0.17911 -0.374275,0.244438 l -0.09509,0.03714 -1.679269,0.0014 c -0.923599,7.85e-4 -1.701531,-0.0023 -1.728739,-0.0069 z"
     id="path4212"
     inkscape:connector-curvature="0" />
  <path
     style="fill:#d84315;fill-opacity:1"
     d="m 13.004433,12.999218 0,-0.996089 0.495437,0 0.495436,0 0,0.996089 0,0.996088 -0.495436,0 -0.495437,0 0,-0.996088 z"
     id="path4214"
     inkscape:connector-curvature="0" />
  <path
     style="fill:#ffa000;fill-opacity:1"
     d="m 3.0080834,4.4985658 0,-2.4980443 0.4902216,0 0.4902217,0 0,2.4980443 0,2.4980444 -0.4902217,0 -0.4902216,0 0,-2.4980444 z"
     id="path4164"
     inkscape:connector-curvature="0" />
  <path
     style="fill:#ffa000;fill-opacity:1"
     d="M 2.5481095,9.9694193 C 1.7814699,9.9641151 1.7646948,9.9635632 1.7084745,9.9417909 1.5262023,9.8712027 1.4487438,9.8233876 1.3261562,9.7057862 1.1856435,9.5709888 1.1121014,9.4550951 1.0578096,9.2829036 c -0.02557,-0.081097 -0.027301,-0.099538 -0.027301,-0.2907851 0,-0.1896534 0.00179,-0.2091156 0.025115,-0.2732555 C 1.0992537,8.5988919 1.124207,8.5480872 1.1826217,8.4602953 1.3137479,8.2632247 1.4903301,8.1330767 1.7401388,8.0493831 l 0.096946,-0.03248 1.6905838,0.01017 c 1.8665988,0.011228 1.7369236,0.00572 1.8835435,0.080042 0.1165483,0.05908 0.1943731,0.1149218 0.2827943,0.2029144 0.1320022,0.1313622 0.2305064,0.305212 0.2655788,0.4687193 0.019613,0.091435 0.019596,0.3492667 -3.13e-5,0.4409395 -0.070867,0.3310332 -0.3583685,0.6305118 -0.7085039,0.738019 -0.07067,0.021699 -0.082267,0.021926 -0.9960887,0.01954 -0.50852,-0.00133 -1.2766045,-0.00485 -1.7068522,-0.00783 z"
     id="path4166"
     inkscape:connector-curvature="0" />
  <path
     style="fill:#ffa000;fill-opacity:1"
     d="M 3.0487614,9.9689093 C 2.3833116,9.9650369 1.813343,9.9582715 1.7821645,9.9538753 1.7059867,9.943134 1.5648769,9.8827966 1.4745683,9.8223496 1.3930101,9.7677597 1.2489391,9.6276879 1.1911572,9.5468057 1.1404045,9.4757629 1.0985164,9.391311 1.0660273,9.2945276 1.0428601,9.2255137 1.038014,9.1893499 1.0334705,9.0515724 1.0305346,8.9625426 1.0328554,8.8565417 1.0386279,8.8160148 1.0660796,8.6232852 1.2120485,8.3812982 1.3854082,8.2411229 1.4672297,8.1749637 1.6182555,8.09479 1.7440714,8.0507227 l 0.092963,-0.032561 0.9604918,0.00628 c 1.4216737,0.00929 2.4238901,0.023775 2.4833081,0.035882 0.061725,0.012576 0.1939391,0.07885 0.2816167,0.141163 0.1766306,0.1255324 0.3326417,0.3464188 0.3866303,0.5474057 0.025747,0.095851 0.025934,0.4036205 3.035e-4,0.5006519 -0.075619,0.2862739 -0.3182666,0.5514069 -0.6182405,0.67553 l -0.092031,0.03808 -0.2346806,0.00733 c -0.2630223,0.00821 -0.2770423,0.0082 -1.9556714,-0.00157 z"
     id="path4168"
     inkscape:connector-curvature="0" />
  <path
     style="fill:#ffa000;fill-opacity:1"
     d="m 3.0018253,12.498566 0,-1.496741 0.4954367,0 0.4954368,0 0,1.496741 0,1.49674 -0.4954368,0 -0.4954367,0 0,-1.49674 z"
     id="path4170"
     inkscape:connector-curvature="0" />
  <path
     style="fill:#ffa000;fill-opacity:1"
     d="m 8.0083442,11.001825 0,-2.9934808 0.4954367,0 0.4954368,0 0,2.9934808 0,2.993481 -0.4954368,0 -0.4954367,0 0,-2.993481 z"
     id="path4172"
     inkscape:connector-curvature="0" />
  <path
     style="fill:#ffa000;fill-opacity:1"
     d="M 7.2938722,6.9760822 6.7932203,6.9705346 6.7097783,6.9411136 C 6.3770217,6.8237863 6.1274886,6.5625941 6.0462727,6.2466064 6.0184435,6.1383312 6.0160324,5.8654289 6.0420251,5.7658409 6.0854748,5.5993686 6.1810169,5.436845 6.3108272,5.3085904 c 0.094397,-0.093265 0.1765038,-0.1514932 0.285261,-0.202298 0.1623145,-0.075824 0.1346813,-0.073248 0.8750982,-0.081565 0.3671447,-0.00412 1.1178232,-0.00803 1.6681743,-0.00868 0.9850763,-0.00116 1.0018463,-8.44e-4 1.0783163,0.020614 0.322931,0.090615 0.564892,0.2982423 0.690585,0.5925943 0.05685,0.1331437 0.06227,0.1668218 0.06227,0.3871026 l 0,0.1995571 -0.04156,0.1063013 c -0.07311,0.1869848 -0.188193,0.346965 -0.326138,0.4533646 -0.07829,0.060385 -0.215,0.1300685 -0.339959,0.1732807 l -0.10792,0.03732 -1.1802158,-0.00228 c -0.6491189,-0.00125 -1.4055095,-0.00477 -1.680868,-0.00782 z"
     id="path4174"
     inkscape:connector-curvature="0" />
  <path
     style="fill:#ffa000;fill-opacity:1"
     d="m 8.0083442,2.9966102 0,-0.9960887 0.4954367,0 0.4954368,0 0,0.9960887 0,0.9960886 -0.4954368,0 -0.4954367,0 0,-0.9960886 z"
     id="path4176"
     inkscape:connector-curvature="0" />
  <path
     style="fill:#ffa000;fill-opacity:1"
     d="m 13.004433,4.9992177 0,-2.9986962 0.495437,0 0.495436,0 0,2.9986962 0,2.9986963 -0.495436,0 -0.495437,0 0,-2.9986963 z"
     id="path4178"
     inkscape:connector-curvature="0" />
  <path
     style="fill:#ffa000;fill-opacity:1"
     d="m 11.789309,10.963492 c -0.336791,-0.07613 -0.640037,-0.361859 -0.736073,-0.693565 -0.02831,-0.09778 -0.03883,-0.319264 -0.02055,-0.4325883 0.05917,-0.3668175 0.308507,-0.6494746 0.692264,-0.7847875 l 0.0921,-0.032473 1.682823,0 1.682822,0 0.0921,0.032173 c 0.362585,0.1266667 0.611498,0.395272 0.687929,0.7423509 0.0225,0.1021606 0.02207,0.3015128 -8.77e-4,0.4086588 -0.04286,0.200111 -0.114831,0.325563 -0.281632,0.490872 -0.123089,0.121989 -0.176319,0.15862 -0.331034,0.227802 l -0.09702,0.04338 -1.720991,0.0014 c -0.946545,7.94e-4 -1.730378,-6.78e-4 -1.741851,-0.0033 z"
     id="path4180"
     inkscape:connector-curvature="0" />
  <path
     style="fill:#ffa000;fill-opacity:1"
     d="m 13.004433,12.999218 0,-0.996089 0.495437,0 0.495436,0 0,0.996089 0,0.996088 -0.495436,0 -0.495437,0 0,-0.996088 z"
     id="path4182"
     inkscape:connector-curvature="0" />
</svg>
