<svg id="Layer_1" data-name="Layer 1" xmlns="http://www.w3.org/2000/svg" viewBox="0 0 808.66 170.58"><defs><style>.cls-1{fill:none;stroke:#000;stroke-miterlimit:10;stroke-width:5px;}</style></defs><title>nomad-text</title><polygon class="cls-1" points="72.44 42.83 72.44 72.77 98.37 87.74 124.3 72.77 124.3 42.83 98.37 27.86 72.44 42.83"/><polygon class="cls-1" points="63.73 107.69 63.73 147.69 98.37 167.69 133.01 147.69 133.01 107.69 98.37 87.69 63.73 107.69"/><polygon points="1.97 79.66 45.25 54.55 46.08 54.35 72.98 54.46 72.8 59.46 45.96 57.6 46.79 57.41 1.97 79.66"/><polygon points="0 29.73 50.03 29.3 50.85 29.54 74.18 42.93 71.55 47.19 49.14 32.3 49.95 32.55 0 29.73"/><polygon points="18.68 121.75 47.35 80.75 48.02 80.22 72.47 68.98 74.4 73.59 49.28 83.22 49.95 82.69 18.68 121.75"/><polygon points="194.51 79.66 149.7 57.41 150.53 57.6 123.69 59.46 123.5 54.46 150.41 54.35 151.24 54.55 194.51 79.66"/><polygon points="196.37 30.45 146.37 32.28 147.19 32.05 124.48 46.49 121.94 42.19 145.53 29.25 146.36 29.03 196.37 30.45"/><polygon points="177.81 121.75 146.54 82.69 147.21 83.22 122.08 73.59 124.02 68.98 148.47 80.22 149.14 80.75 177.81 121.75"/><polygon points="82.07 0 79.83 22.33 79.65 21.34 87.97 33.87 83.63 36.35 77.05 22.82 76.87 21.83 82.07 0"/><polygon points="114.96 0 120.16 21.83 119.98 22.82 113.41 36.35 109.06 33.87 117.38 21.34 117.2 22.33 114.96 0"/><path d="M262.21,95.62,247.68,68.8h-.52V169.32H233V48.56h16.78l44.12,73.7,14.53,26.82h.52V48.56h14.19V169.32H306.33Z" transform="translate(-10.26 -24.18)"/><path d="M349.23,108.94c0-40.48,20.07-62.45,51.21-62.45s51.21,22,51.21,62.45-20.07,62.45-51.21,62.45S349.23,149.42,349.23,108.94Zm86.85,10V98.91c0-23.87-14.71-39.44-35.64-39.44S364.8,75,364.8,98.91V119c0,23.87,14.71,39.44,35.64,39.44S436.08,142.85,436.08,119Z" transform="translate(-10.26 -24.18)"/><path d="M571.71,67.59h-.86L560.63,87.83l-28.89,52.59L503,87.83,492.82,67.77H492V169.32H477.77V48.56h19l34.6,65h.69l34.77-65h19V169.32H571.71Z" transform="translate(-10.26 -24.18)"/><path d="M693.67,169.32l-12.11-35.64H632.77l-12.11,35.64H606L648.17,48.56h18.51l42.21,120.76ZM657.51,62.06h-.87l-20.41,58.82h41.69Z" transform="translate(-10.26 -24.18)"/><path d="M729,48.56h40.48c30.1,0,49.48,20.07,49.48,60.38s-19.38,60.38-49.48,60.38H729Zm40.48,108c19.9,0,33.91-13.84,33.91-37.71V99.08c0-23.87-14-37.71-33.91-37.71h-26v95.15Z" transform="translate(-10.26 -24.18)"/></svg>