<svg id="Layer_1" data-name="Layer 1" xmlns="http://www.w3.org/2000/svg" viewBox="0 0 464.28 81.31"><defs><style>.cls-1{isolation:isolate;}</style></defs><title>quark-text</title><g class="cls-1"><path d="M5.46,42V36H47.34v6Zm0,17.6v-6H47.34v6Z" transform="translate(-5.46 -7.83)"/><path d="M72.6,86.85v-79H97.24v5.46H78.67V81.4H97.24v5.46Z" transform="translate(-5.46 -7.83)"/><path d="M148.81,89.14h-10.3c-6.86,0-10-4.31-10-10.38V75.5c-12.5-1.67-18-13.11-18-31.5,0-20.06,6.51-31.77,21.47-31.77S153.47,23.94,153.47,44c0,18.39-5.54,29.83-18,31.5v7.66h13.29ZM145.64,49V39c0-12.32-3.87-20.33-13.64-20.33s-13.64,8-13.64,20.33V49c0,12.32,3.87,20.33,13.64,20.33S145.64,61.33,145.64,49Z" transform="translate(-5.46 -7.83)"/><path d="M172.83,13.29V50.16c0,11.88.44,19.18,12,19.18s12-7.3,12-19.18V13.29h7.39V48.4c0,18.22-2.64,27.37-19.36,27.37s-19.36-9.15-19.36-27.37V13.29Z" transform="translate(-5.46 -7.83)"/><path d="M253.52,74.71,248.33,57.2H226.77l-5.19,17.51h-7.66l18.83-61.42h9.77l18.83,61.42ZM237.95,21.12h-.79l-8.62,29.66h18Z" transform="translate(-5.46 -7.83)"/><path d="M279.31,74.71h-7.39V13.29h22.35c11.35,0,17.51,6.6,17.51,17.69,0,9.86-5.37,16.19-15.13,17.16l15.66,26.58H304l-15-26.22h-9.77Zm14.78-32.47c6.16,0,9.86-3.26,9.86-9V28.69c0-5.72-3.7-9-9.86-9H279.31V42.24Z" transform="translate(-5.46 -7.83)"/><path d="M340.47,44.62,331.67,55V74.71h-7.39V13.29h7.39v32h.26L340,35.11l18.13-21.82H367L345.48,39.16l22.17,35.55H359Z" transform="translate(-5.46 -7.83)"/><path d="M402.59,7.83v79H378V81.4h18.57V13.29H378V7.83Z" transform="translate(-5.46 -7.83)"/><path d="M427.85,42V36h41.89v6Zm0,17.6v-6h41.89v6Z" transform="translate(-5.46 -7.83)"/></g></svg>