<svg id="Layer_1" data-name="Layer 1" xmlns="http://www.w3.org/2000/svg" viewBox="0 0 184.66 141.52"><defs><style>.cls-1,.cls-2{fill:none;stroke:#000;stroke-miterlimit:10;}.cls-1{stroke-width:3px;}</style></defs><title>quark-text</title><circle cx="97.89" cy="53.43" r="5"/><path class="cls-1" d="M94.58,58.43" transform="translate(-2.17 -7.73)"/><circle class="cls-2" cx="87.52" cy="53.4" r="4.5"/><circle cx="92.77" cy="44.52" r="5"/><ellipse class="cls-2" cx="94.93" cy="58.19" rx="25" ry="50" transform="translate(-5.1 103.57) rotate(-60)"/><ellipse class="cls-2" cx="95.03" cy="58.07" rx="50" ry="25" transform="translate(-18.48 47.56) rotate(-30)"/><ellipse class="cls-2" cx="92.75" cy="50.5" rx="25" ry="50"/><path d="M2.17,130.29v-3.12H18.83v3.12Zm0,7.42v-3.12H18.83v3.12Z" transform="translate(-2.17 -7.73)"/><path d="M28.25,148V116.53H38.71v2.73H31.4v26h7.32V148Z" transform="translate(-2.17 -7.73)"/><path d="M59.71,149.26H55.23c-3.15,0-4.48-1.82-4.48-4.52v-1.33c-5-.81-7.21-5.32-7.21-12.5,0-8,2.77-12.64,9-12.64s9,4.66,9,12.64c0,7.18-2.24,11.69-7.21,12.5v2.91h5.46ZM57.3,132.95v-4.1c0-4.48-1.3-7.32-4.8-7.32s-4.79,2.84-4.79,7.32V133c0,4.48,1.29,7.32,4.79,7.32S57.3,137.46,57.3,132.95Z" transform="translate(-2.17 -7.73)"/><path d="M69.34,118.7v15c0,4,.21,6.58,4.17,6.58s4.17-2.56,4.17-6.58v-15h3.92V133c0,7-1.26,10.54-8.09,10.54S65.41,140,65.41,133V118.7Z" transform="translate(-2.17 -7.73)"/><path d="M100.17,143.13l-1.86-6.51H90.55l-1.86,6.51h-4l7.14-24.43H97.2l7.14,24.43Zm-5.6-20.48h-.28l-3,10.71h6.3Z" transform="translate(-2.17 -7.73)"/><path d="M111.83,143.13h-3.89V118.7h9.14c4.62,0,7.18,2.8,7.18,7.35,0,3.71-1.89,6.3-5.29,6.86l5.64,10.22h-4.34l-5.18-9.87h-3.25Zm4.69-13c2.45,0,3.64-1.08,3.64-3.33v-1.51c0-2.24-1.19-3.33-3.64-3.33h-4.69v8.16Z" transform="translate(-2.17 -7.73)"/><path d="M135.59,131.9l-2.94,3.68v7.56h-3.92V118.7h3.92v11.69h.18l3-4.06,6-7.63h4.51L138.25,129l8.37,14.14h-4.48Z" transform="translate(-2.17 -7.73)"/><path d="M160.76,116.53V148H150.29v-2.73h7.32v-26h-7.32v-2.73Z" transform="translate(-2.17 -7.73)"/><path d="M170.17,130.29v-3.12h16.66v3.12Zm0,7.42v-3.12h16.66v3.12Z" transform="translate(-2.17 -7.73)"/></svg>