<svg id="Layer_1" data-name="Layer 1" xmlns="http://www.w3.org/2000/svg" viewBox="0 0 181.33 134.08"><defs><style>.cls-1,.cls-2{fill:none;stroke:#000;stroke-miterlimit:10;}.cls-1{stroke-width:3px;}</style></defs><title>tritium-text</title><circle cx="96.32" cy="53.43" r="5"/><path class="cls-1" d="M94.58,58.43" transform="translate(-3.74 -7.73)"/><circle class="cls-2" cx="85.95" cy="53.4" r="4.5"/><circle cx="91.2" cy="44.52" r="5"/><ellipse class="cls-2" cx="94.93" cy="58.19" rx="25" ry="50" transform="translate(-6.67 103.57) rotate(-60)"/><ellipse class="cls-2" cx="95.03" cy="58.07" rx="50" ry="25" transform="translate(-20.04 47.56) rotate(-30)"/><ellipse class="cls-2" cx="91.19" cy="50.5" rx="25" ry="50"/><path d="M3.74,127.68v-2.49H17.06v2.49Zm0,5.94v-2.49H17.06v2.49Z" transform="translate(-3.74 -7.73)"/><path d="M24.6,141.82V116.67H33v2.18H27.12v20.78H33v2.18Z" transform="translate(-3.74 -7.73)"/><path d="M45.57,121V138H42.43V121H36.3v-2.63H51.7V121Z" transform="translate(-3.74 -7.73)"/><path d="M57.86,138H54.75V118.41h7.31c3.7,0,5.74,2.24,5.74,5.88,0,3-1.51,5-4.23,5.49L68.08,138H64.61l-4.14-7.9h-2.6Zm3.75-10.42c2,0,2.91-.87,2.91-2.66v-1.2c0-1.79-1-2.66-2.91-2.66H57.86v6.52Z" transform="translate(-3.74 -7.73)"/><path d="M71.44,138v-2.38H76V120.79H71.44v-2.38H83.76v2.38H79.17v14.78h4.59V138Z" transform="translate(-3.74 -7.73)"/><path d="M96,121V138H92.83V121H86.7v-2.63h15.4V121Z" transform="translate(-3.74 -7.73)"/><path d="M105,138v-2.38h4.59V120.79H105v-2.38h12.32v2.38h-4.59v14.78h4.59V138Z" transform="translate(-3.74 -7.73)"/><path d="M124.67,118.41v12c0,3.22.17,5.26,3.33,5.26s3.33-2,3.33-5.26v-12h3.14v11.45c0,5.6-1,8.43-6.47,8.43s-6.47-2.83-6.47-8.43V118.41Z" transform="translate(-3.74 -7.73)"/><path d="M148.86,128.6l.08-5.88h-.22l-3.92,10.05-3.92-10.05h-.22l.08,5.88V138H138V118.41h3.84l3,7.76h.2l3-7.76h3.61V138h-2.77Z" transform="translate(-3.74 -7.73)"/><path d="M164.2,116.67v25.14h-8.37v-2.18h5.85V118.86h-5.85v-2.18Z" transform="translate(-3.74 -7.73)"/><path d="M171.73,127.68v-2.49h13.33v2.49Zm0,5.94v-2.49h13.33v2.49Z" transform="translate(-3.74 -7.73)"/></svg>