<?xml version="1.0" encoding="utf-8"?>
<!-- Generator: Adobe Illustrator 21.1.0, SVG Export Plug-In . SVG Version: 6.00 Build 0)  -->
<svg version="1.1" id="Layer_1" xmlns="http://www.w3.org/2000/svg" xmlns:xlink="http://www.w3.org/1999/xlink" x="0px" y="0px"
	 viewBox="0 0 384.3 447.7" style="enable-background:new 0 0 384.3 447.7;" xml:space="preserve">
<style type="text/css">
	.st0{fill:#6D4D43;}
	.st1{fill:#9F0000;}
	.st2{fill:#D84315;}
	.st3{fill:#FFA000;}
	.st4{display:none;opacity:0.49;fill:#9F0000;enable-background:new    ;}
	.st5{display:none;}
	.st6{display:inline;}
	.st7{fill:#513B33;}
	.st8{fill:#352621;}
	.st9{fill:#D3BBA7;}
	.st10{fill:none;stroke:#997D6A;stroke-width:0.75;stroke-miterlimit:10;}
	.st11{fill:#949C9C;}
</style>
<g id="Layer_4">
	<g id="Layer_1_1_">
		<g>
			<path class="st0" d="M91.8,412.4c14.6-39.5,29.3-78.9,43.9-118.4c3.3-9,6.8-18.2,12.9-25.6s15.4-12.9,25-11.8
				c3.2,0.4,6.5,1.5,8.7,3.9c4.6,5,3,13,1,19.6c-9.4,31.3-18.8,62.5-28.3,93.8c-4.8,15.9-9.8,32.2-20.3,45.1
				c-10.5,12.9-27.8,21.6-43.7,17c-1.5-0.4-3-1-3.8-2.3c-0.9-1.5-0.6-3.3-0.2-5c2.9-13.2,7.4-26.1,13.1-38.4"/>
		</g>
		<g>
			<path class="st0" d="M185.6,372.6c-1.9-27.1-1.7-54.3,0.6-81.3c0.6-7.3,1.5-14.9,5.4-21.1c3.9-6.2,11.8-10.5,18.7-8
				c8.8,3.2,11,14.4,11.7,23.7c3.2,41.9,4.9,83.8,4.9,125.8c0,5.5-0.4,11.7-4.6,15.2c-1.9,1.6-4.4,2.4-6.9,2.9
				c-9.3,2-19.1,1.1-27.9-2.6c-4.7-41.2-5.6-82.9-2.6-124.2"/>
		</g>
		<g>
			<path class="st0" d="M232,266.7c1.6-1.7,3.2-3.5,4.9-5.2c1.9-2,3.9-4.1,6.6-4.8c5.1-1.2,9.6,3.2,12.9,7.3
				c18.2,23.1,31.7,49.5,45,75.7c6,11.8,12.1,23.8,14,36.9s-1.3,27.6-11.2,36.3c-3.3,2.9-7.5,5.1-11.9,5.4
				c-11.7,0.6-19.4-11.6-24.4-22.2c-11.6-24.2-23.2-48.4-34.8-72.6c-4.7-9.8-9.5-19.9-10.2-30.7s3.6-22.7,13.2-27.9"/>
		</g>
		<g>
			<path class="st0" d="M129.6,266.6c-3.9-4.2-11-3.8-15.8-0.7s-7.9,8.2-10.9,13.1c-20.7,35-40.5,70.5-59.2,106.6
				c-2.5,4.8-5.1,10.5-3,15.6c3.2,8,14.4,8,22.3,11.6c2.1,1,4.3,2.3,6.5,1.8c2.6-0.5,4.2-3.1,5.4-5.5c17.1-32.6,34.2-65.2,51.3-97.8
				c7.9-15.1,15.6-34.7,4.8-48"/>
		</g>
		<g>
			<path class="st0" d="M268.4,274.5c21.1,15.1,42.3,30.1,63.4,45.2c11.7,8.3,24.5,18.8,24.7,33.1c0.1,9.7-6.7,19-15.9,22
				c-9.2,2.9-20.2-0.8-25.7-8.8"/>
		</g>
		<g>
			<path class="st0" d="M96.1,299.1C75.7,310,55.4,320.8,35,331.7c-4.7,2.5-9.6,5.3-12,10c-5.6,11.3,7,25,2.8,36.8
				c7.9-1.7,15.3-5.4,21.5-10.6"/>
		</g>
		<path class="st1" d="M199.4,357c43.6-1.7,99.4-32.4,98-76c-1.4-45-33.7-106.9-32.1-151.9c-5.6,8.1-8.5,17.9-8.2,27.7
			C229.3,104.5,201.6,52.3,173.8,0c4.8,25.9,1,53.2-10.1,77.1c-2.4-8.8-4.7-17.7-7.1-26.5c-12.9,25.7-17.2,59.3-18.7,88
			c-0.3,5.1,1.9,29.9,2,35c-1.9-2.1-6.4-7-9-15c-3.2-9.8-4.6-23.1-5.6-26.4c-28.2,44.7-42.5,97.9-40.5,150.7
			c0.4,11.6,1.7,23.3,6.6,33.8c8.5,18.3,26.9,30.3,46.3,35.8C157.1,357.9,199.4,357,199.4,357z"/>
		<g id="Layer_5">
			<g>
				<path class="st2" d="M156,330.7c-15.5-2.3-29.7-12.4-37-26.3c-7.3-13.9-7.6-31.3-0.8-45.4c3.5-7.2,8.6-13.5,12-20.7
					c3.3-7.3,4.6-16.3,0.2-22.9c6.2-0.9,9.2,7.5,9.2,13.8s0.9,14.5,7,15.9c1.6,0.4,3.2,0.1,4.8-0.3c15-3.7,22.8-21,22.7-36.4
					c-0.1-15.4-5.9-30.2-8.1-45.5s0.1-33,12.4-42.4c4.5,17.4,11.9,34.1,22,49c0.3-11.2,0.5-22.3,0.8-33.5
					c23.1,30.3,35.6,68.6,34.9,106.7c6-4.7,10.3-11.6,11.9-19.1c1.9,11.1,6.5,21.7,8,32.8c3.2,24.2-9.6,49.2-29.9,62.9
					S179.6,337,156,330.4"/>
			</g>
		</g>
		<g>
			<path class="st3" d="M161.7,322.6c-13.8-3.4-25.8-14.9-27.8-28.9c-1.5-10.8,2.5-21.5,6.6-31.6c2.8,6.6,3.7,10.9,6.5,17.5
				c0.6,1.4,4.8,5.2,6,6c1.3,0.9,6.5,1.1,8,1c10.9-0.9,15.3-8.5,21.3-17.7c5.9-9.2,8.6-20.1,10.3-31c2.5-16.8,2.2-35.5-8.4-48.7
				c10.5,13,17.1,29.1,18.7,45.7c3.7-4.2,5.2-10.3,3.8-15.8c5.5,14.6,11.1,29.9,9.4,45.4c-0.7,6.8-2.8,14,0.5,20
				c5-3.1,9.4-7.1,13-11.7c-0.4,17.8-10.6,35.1-25.9,44.2c-15.3,9.1-35.4,9.7-51.2,1.6"/>
		</g>
	</g>
	<g id="Layer_7">
	</g>
	<path class="st4" d="M199.4,357c43.6-1.7,99.4-32.4,98-76c-1.4-45-33.7-106.9-32.1-151.9c-5.6,8.1-8.5,17.9-8.2,27.7
		C229.3,104.5,201.6,52.3,173.8,0c4.8,25.9,1,53.2-10.1,77.1c-2.4-8.8-4.7-17.7-7.1-26.5c-15.2,30.2-16.5,94.2-15.7,128
		c-2.1-2.2-6.9-11-10-21c-3.2-10.5-4.7-22.3-5.6-25.4c-28.2,44.7-42.5,97.9-40.5,150.7c0.4,11.6,1.7,23.3,6.6,33.8
		c8.5,18.3,26.9,30.3,46.3,35.8C157.1,357.9,199.4,357,199.4,357z"/>
</g>
<g id="Layer_6" class="st5">
	<g id="XMLID_25_" class="st6">
		<g>
			<path class="st1" d="M671.6-62.8c9.9,42.9,19.7,87.8,8.7,130.4C661,142.7,572.3,173,497.3,170c-54.7,5.6-99.7-28.9-138.6-67.8
				c-26-26-44.4-64.9-31.3-99.2c10.3-26.9,36.5-43.4,58.3-62.2c21.8-18.8,41.5-47.4,32-74.5c14.5,19.8,20.2,56.2,46.8,60.6
				c27.8,4.7,51.3-24.9,53-53.1s-10.7-55-19-82s-11.7-58.8,5.5-81.2c-4.1,32.2,15.8,62.7,39,85.4s50.8,41.3,69.5,67.8
				c20,28.3,28.1,64.7,22.2,98.8C649.4-41.9,662.4-50.9,671.6-62.8z"/>
		</g>
	</g>
	<g class="st6">
		<path class="st2" d="M557.9,159.5c31-16,62.7-42.5,74-71s15.3-60.5,17-91c-6.6,11.8-37.1,32.4-50,37c7.3-53.4,14.2-122.2-26-159
			c-14.8-13.5-19-16-35-28c30.5,39.8-3.8,88.9-41.4,122.4c-13.2,11.8-32.6,22.6-48.4,19c-17.4-3.9-34.2-33-36.1-50.4
			C398.1-30,365.1,12.3,360,46.2c-5.3,35.5,21.2,68.1,50.3,90c18.7,14.1,39.6,26.1,62.6,31.6C495.8,173.2,537.3,170.8,557.9,159.5"
			/>
	</g>
	<g class="st6">
		<path class="st3" d="M480.9,168.5c-35-8.6-86.3-39.4-99.4-69.9c-13.2-30.5-3.4-69.4,26.7-87.7c-14.3,21.3-3.8,52,20,64.7
			s56.4,7.6,76.4-9.6c20-17.2,27.5-44.3,22.1-68.8c26,27.5,30,70.2,9.5,101.2c16.3-0.8,31.9-8.9,40.9-21.2
			c0.8,20.3-2.8,43.3-12.2,59.3S537.2,178,480.9,168.5"/>
	</g>
	<g class="st6">
		<g id="XMLID_24_">
			<g>
				<path class="st7" d="M306.9-201c-1.7,7.8-9.9,16.2-16,20.2L80.3-61.1C60.5-50.3,35-85.5,30.1-97.7c-5.6-14-7.4-41.6,6.4-47.7
					l229.7-90.7c11-4.8,32,7.1,36.5,17.3C302.6-218.8,308.7-209.2,306.9-201z"/>
			</g>
		</g>
		<g>
			<g>
				<path class="st8" d="M282.2-231.3c-31.2,10.3-62,22-92.2,35.1c-0.8,0.3-0.1,1.4,0.6,1.1c30.1-13,60.8-24.7,91.9-34.9
					C283.4-230.3,283-231.6,282.2-231.3L282.2-231.3z"/>
			</g>
		</g>
		<g>
			<g>
				<path class="st8" d="M207.4-174.4c-33.7,14.8-67.4,29.5-101.1,44.3c-0.8,0.3-0.1,1.4,0.6,1.1c33.7-14.8,67.4-29.5,101.1-44.3
					C208.8-173.6,208.1-174.7,207.4-174.4L207.4-174.4z"/>
			</g>
		</g>
		<g>
			<g>
				<path class="st8" d="M149.4-115.3C122-102.2,94.8-88.4,68-74.1c-0.7,0.4-0.1,1.5,0.6,1.1c26.8-14.3,54-28,81.4-41.2
					C150.8-114.6,150.2-115.7,149.4-115.3L149.4-115.3z"/>
			</g>
		</g>
		<g>
			<g>
				<path class="st8" d="M293.1-198.1c-13.4,8.3-27.1,16-41.1,23.1c-0.7,0.4-0.1,1.5,0.6,1.1c14-7.1,27.7-14.8,41.1-23.1
					C294.5-197.4,293.9-198.5,293.1-198.1L293.1-198.1z"/>
			</g>
		</g>
		<g>
			<g>
				<path class="st8" d="M37.7-142.2c1.9,1.5,4,1.7,6.4,1.2c3.9-0.8,7.8-2.5,11.5-3.9c8.5-3,16.8-6.3,25.1-9.7
					c0.8-0.3,0.4-1.6-0.3-1.2c-6.8,2.8-13.6,5.5-20.4,8c-3.3,1.2-6.7,2.4-10,3.6c-3.3,1.2-8.1,3.6-11.3,1.1
					C37.9-143.6,37-142.7,37.7-142.2L37.7-142.2z"/>
			</g>
		</g>
		<g id="XMLID_23_">
			<g>
				<path class="st9" d="M76.2-111.8C85.8-91.9,89-69.3,80.3-61c-7.8,4.2-16.5,1.4-24.5-4.4C43.5-74.3,33-90.1,30-97.6
					c-5.6-14-7.4-41.6,6.4-47.7c5.2-1.5,11.3,0.4,17.4,4.9C62-134.5,70.3-124.1,76.2-111.8z"/>
			</g>
		</g>
		<g id="XMLID_22_">
			<g>
				<path class="st10" d="M31.9-97.7c-4.9-12.3-6.5-36.6,5.6-41.9c4.5-1.4,9.9,0.4,15.3,4.3c7.2,5.3,14.5,14.5,19.7,25.2
					c8.5,17.5,11.3,37.4,3.6,44.7c-6.9,3.7-14.5,1.2-21.6-3.9C43.7-77.3,34.5-91.2,31.9-97.7z"/>
			</g>
		</g>
		<g id="XMLID_21_">
			<g>
				<path class="st10" d="M35.7-98.2c-4-10-5.3-29.9,4.6-34.2c3.7-1.1,8.1,0.3,12.5,3.5c5.9,4.3,11.8,11.8,16,20.6
					c6.9,14.3,9.2,30.5,3,36.4c-5.6,3-11.9,1-17.6-3.2C45.4-81.5,37.8-92.9,35.7-98.2z"/>
			</g>
		</g>
		<g id="XMLID_20_">
			<g>
				<path class="st10" d="M40.7-100.3c-2.8-6.9-3.6-20.6,3.2-23.6c2.6-0.8,5.6,0.2,8.6,2.4c4.1,3,8.1,8.1,11.1,14.2
					c4.8,9.8,6.3,21,2,25.1c-3.9,2.1-8.2,0.7-12.1-2.2C47.4-88.8,42.2-96.6,40.7-100.3z"/>
			</g>
		</g>
		<g id="XMLID_19_">
			<g>
				<path class="st10" d="M45.8-101.7c-1.5-3.7-1.9-11,1.7-12.6c1.4-0.4,3,0.1,4.6,1.3c2.2,1.6,4.3,4.3,5.9,7.6
					c2.5,5.3,3.4,11.2,1.1,13.4c-2.1,1.1-4.4,0.4-6.5-1.2C49.3-95.6,46.5-99.8,45.8-101.7z"/>
			</g>
		</g>
	</g>
</g>
<g id="Layer_2">
	<g>
		<path class="st11" d="M254.4,408.9c3.5-7.7,3.1-16.7,6.6-24.3c7.9-17.5,30.8-21,49.9-22c5.2-0.3,10.7-0.5,15.5,1.7
			c9,4.2,12.2,15.2,14.3,24.9c1.5,7.1,3.1,14.6,0.9,21.6c-4.2,13.5-19.9,19.2-33.6,22.9c-6.4,1.8-12.8,3.5-19.3,5.3
			c-6.3,1.7-13.2,3.4-19.3,0.9c-11.2-4.7-12.3-20-10.3-31.9"/>
	</g>
	<g>
		<path class="st11" d="M253.1,392.6c-11.7-17.1-32.6-27.3-53.3-26c-7,0.4-14.1,2.2-19.8,6.2c-8.6,6.1-12.9,16.5-16.8,26.4
			c-3.1,8-6.3,16.2-6.4,24.7c0,8.6,3.8,17.7,11.5,21.5c5.2,2.6,11.2,2.4,17,2.2c9.9-0.4,19.8-0.8,29.7-1.3c12-0.6,25.6-2,32.9-11.6
			c4.7-6.2,5.5-14.5,6.1-22.3c0.5-5.8,0.9-11.6,1.4-17.5"/>
	</g>
	<g>
		<path class="st11" d="M153.1,402.6c-17.3-10.3-36.9-16.7-57-18.7c-6.2-0.6-12.7-0.8-18.7,0.9c-12.1,3.4-21.6,14.8-22.5,27.3
			s7.1,25.3,18.9,29.6c9.1,3.3,19.1,1.9,28.7,0.4c10.9-1.7,21.8-3.4,32.8-5.1c3.5-0.5,7.2-1.1,10.3-2.8c9.6-5.1,10.4-21,1.5-27.1"/>
	</g>
	<g>
		<path class="st11" d="M49.2,377.6c-4.3-4.6-8.8-9.2-14.5-11.7c-5.8-2.4-13.2-2-17.4,2.7c-2.4,2.8-3.3,6.6-3.9,10.2
			c-1.5,10.7-0.1,22.2,6.3,30.8s18.7,13.3,28.5,8.9c9.8-4.4,14.1-19,6.6-26.7"/>
	</g>
	<g>
		<path class="st11" d="M310.6,301.3c7.2-6.4,18.1-8.3,27.1-4.9c9,3.4,15.8,12,17.1,21.6c0.8,5.9-1.7,13.3-7.6,14.1"/>
	</g>
	<g>
		<path class="st11" d="M338.1,366.9c-2.8-1.4-1.9-5.5-0.7-8.3c3.9-8.7,8.1-17.8,15.6-23.6s19.5-7.3,26.1-0.5
			c5.9,6.1,5.6,15.7,4.8,24.2c-1.1,11.8-2.2,23.9-8,34.2s-17.5,18.2-29.1,15.7"/>
	</g>
	<g>
		<path class="st11" d="M35.5,366.3c-1.2-15-2.5-30-3.7-45.1c-0.2-3-0.9-6.6-3.7-7.7c-1.5-0.6-3.3-0.2-4.8,0.4
			C10.5,318.8,5.2,333.7,1.4,347c-1,3.7-2.1,7.6-0.7,11.2c3.7,9.7,18.8,6.5,27.2,12.5"/>
	</g>
	<g>
		<path class="st11" d="M30.2,314.8c6.7-2.8,12.5-7.5,19.3-10.2c6.7-2.7,15.4-2.9,20.4,2.3s2.2,16.4-5.1,16.3"/>
	</g>
</g>
<g id="Layer_3" class="st5">
	<g class="st6">
		<g>
			<path class="st1" d="M253.8,314.5c20.5-7.9,37.8-27,48.7-45.6c5.1-8.9,9.6-19.1,9.2-29.6c-0.5-13.7-7.3-28-12.9-40.3
				c-7.2-16-15.9-31.5-21-48.4c-0.7-2.4-4.1-2.9-5.4-0.7c-3.4,6-6.9,11.9-10.3,17.9c1.8,0.8,3.6,1.5,5.4,2.3
				c5.9-36.3-20.2-65.1-41-91.5c-11-13.9-20.6-28.6-25.4-45.8c-4.4-15.6-5.7-31.8-8.2-47.8c-2.7-17.6-7-35.2-17.5-49.9
				c-1.5-2.1-5-2.1-5.7,0.7C161.6-31.1,153.4,2,145.3,35c1.8-0.5,3.5-0.9,5.3-1.4c-9.5-10.5-12.2-25.2-7.6-38.5
				c1.2-3.3-4.3-5.7-5.8-2.4c-10.1,23.2-20.8,47.9-18.6,73.7c1.9,21.7,16.4,48,3,68.4c1.8,0,3.7,0,5.5,0
				c-3.6-6.8-7.2-13.6-10.9-20.4c-0.9-1.7-3.7-2.2-5-0.6c-22.1,25-30.1,60.5-20.5,92.4c1.3-1.3,2.6-2.6,3.9-3.9
				c-6.6-2.5-11.1-7.9-12.7-14.7c-0.8-3.4-5.1-2.7-6.2,0c-17.3,41.9-28.4,97.1,13.5,128.5c31.2,23.4,75.7,25,112.9,19.8
				c18.8-2.6,38.8-7.6,53.2-20.6c2.8-2.6-1.4-6.7-4.2-4.2c-11.6,10.5-28.7,14.9-43.7,17.5c-18.3,3.3-37.2,3.8-55.7,2.2
				c-17.2-1.5-34-5.2-49.2-13.7c-20.7-11.5-34.1-30.8-36-54.5c-2.1-25.2,5.9-50.3,15.3-73.3c-2.1,0-4.1,0-6.2,0
				c2.2,9.1,8.5,15.9,17.2,19.2c2.3,0.9,4.6-1.7,3.9-3.9c-8.9-29.7-1.7-62.9,18.9-86.2c-1.7-0.2-3.4-0.4-5-0.6
				c3.6,6.8,7.2,13.6,10.9,20.4c1.2,2.2,4.3,1.9,5.5,0c12.9-19.6,2.6-43.5-1.2-64.3c-4.9-27.3,5.9-53.3,16.7-77.9
				c-1.9-0.8-3.9-1.6-5.8-2.4c-5.4,15.4-1.7,32.6,9.2,44.7c1.6,1.7,4.7,0.8,5.3-1.4c8.1-33.1,16.3-66.2,24.4-99.2
				c-1.9,0.2-3.8,0.5-5.7,0.7c18.6,26,16.6,59.6,23.4,89.5c3.6,15.8,10.3,30,19.6,43.2c9.8,13.9,21.5,26.3,31.2,40.3
				c11.5,16.7,20.9,36.6,17.5,57.4c-0.5,3.1,3.6,5.4,5.4,2.3c3.4-6,6.8-11.9,10.3-17.9c-1.8-0.2-3.6-0.5-5.4-0.7
				c8.3,27.5,25.6,51.5,32.7,79.5c5.4,21.4-9.8,43.1-23.7,58.1c-8.1,8.7-17.5,17-28.5,21.8C251,312.3,252.1,315.2,253.8,314.5
				L253.8,314.5z"/>
		</g>
	</g>
</g>
</svg>
