<svg id="Layer_1" data-name="Layer 1" xmlns="http://www.w3.org/2000/svg" xmlns:xlink="http://www.w3.org/1999/xlink" viewBox="0 0 937.32 155.4"><defs><style>.cls-1,.cls-11,.cls-2,.cls-5{fill:none;}.cls-2,.cls-6{stroke:#000;}.cls-2{stroke-linecap:round;stroke-width:12px;}.cls-10,.cls-11,.cls-12,.cls-2,.cls-5,.cls-6,.cls-7,.cls-8,.cls-9{stroke-miterlimit:10;}.cls-3{fill:#0071bc;}.cls-4{fill:#009245;}.cls-5{stroke:#4d4d4d;stroke-width:0.5px;}.cls-7{fill:#f5d7d7;}.cls-10,.cls-11,.cls-12,.cls-7,.cls-8,.cls-9{stroke:#838bc5;}.cls-8{fill:#ae9191;}.cls-9{fill:#d6b2b2;}.cls-10{fill:#f9b7b7;}.cls-12{fill:#e08d8d;}.cls-13{clip-path:url(#clip-path);}.cls-14{clip-path:url(#clip-path-3);}.cls-15{fill:#4d4d4d;}.cls-16{fill:#d84315;}.cls-17{fill:#ffa000;}.cls-18{fill:#333;}.cls-19{fill:#9f0000;}</style><clipPath id="clip-path" transform="translate(-11.98 -158.02)"><rect class="cls-1" x="1.65" y="158.02" width="155.4" height="155.4"/></clipPath><clipPath id="clip-path-3" transform="translate(-11.98 -158.02)"><rect class="cls-1" x="11.98" y="158.02" width="134.58" height="155.4"/></clipPath></defs><title>slogan</title><line class="cls-2" x1="497.88" y1="76.98" x2="748.88" y2="76.98"/><rect x="491.88" y="37.98" width="12" height="78"/><polygon points="709.12 126.06 700.93 117.27 744.28 76.99 700.93 36.7 709.12 27.91 761.9 76.99 709.12 126.06"/><path class="cls-3" d="M865.49,280.58v14.66A60.69,60.69,0,0,1,812.32,235a59.93,59.93,0,0,1,1.11-11.32,1.25,1.25,0,0,1,2.1-.66l34.41,34.41a1.23,1.23,0,0,1,.36.87v7.09A15.19,15.19,0,0,0,865.49,280.58Z" transform="translate(-11.98 -158.02)"/><path class="cls-3" d="M933.86,235a60.49,60.49,0,0,1-16,40.95,15.25,15.25,0,0,0-14.44-10.56h-6.35a1.24,1.24,0,0,1-1.24-1.24V243.83A8.84,8.84,0,0,0,887,235h-43.1a1.24,1.24,0,0,1-1.24-1.24V221.05a1.24,1.24,0,0,1,1.24-1.24h12.72a8.83,8.83,0,0,0,8.83-8.84V198.26a1.24,1.24,0,0,1,1.24-1.24h12.72a16.44,16.44,0,0,0,16.43-16.43,1.25,1.25,0,0,1,1.24-1.25,1.23,1.23,0,0,1,.49.1A60.64,60.64,0,0,1,933.86,235Z" transform="translate(-11.98 -158.02)"/><path class="cls-4" d="M873.09,159a76,76,0,1,1-76,76A76,76,0,0,1,873.09,159ZM917.91,276a60.64,60.64,0,0,0-20.3-96.51,1.23,1.23,0,0,0-.49-.1,1.25,1.25,0,0,0-1.24,1.25A16.44,16.44,0,0,1,879.45,197H866.73a1.24,1.24,0,0,0-1.24,1.24V211a8.83,8.83,0,0,1-8.83,8.84H843.94a1.24,1.24,0,0,0-1.24,1.24v12.71a1.24,1.24,0,0,0,1.24,1.24H887a8.84,8.84,0,0,1,8.84,8.83v20.32a1.24,1.24,0,0,0,1.24,1.24h6.35A15.25,15.25,0,0,1,917.91,276Zm-52.42,19.29V280.58a15.19,15.19,0,0,1-15.19-15.19V258.3a1.23,1.23,0,0,0-.36-.87L815.53,223a1.25,1.25,0,0,0-2.1.66A59.93,59.93,0,0,0,812.32,235,60.69,60.69,0,0,0,865.49,295.24Z" transform="translate(-11.98 -158.02)"/><path class="cls-5" d="M917.91,276a15.25,15.25,0,0,0-14.44-10.56h-6.35a1.24,1.24,0,0,1-1.24-1.24V243.83A8.84,8.84,0,0,0,887,235h-43.1a1.24,1.24,0,0,1-1.24-1.24V221.05a1.24,1.24,0,0,1,1.24-1.24h12.72a8.83,8.83,0,0,0,8.83-8.84V198.26a1.24,1.24,0,0,1,1.24-1.24h12.72a16.44,16.44,0,0,0,16.43-16.43,1.25,1.25,0,0,1,1.24-1.25,1.23,1.23,0,0,1,.49.1A60.64,60.64,0,0,1,917.91,276Z" transform="translate(-11.98 -158.02)"/><path class="cls-5" d="M865.49,295.24A60.69,60.69,0,0,1,812.32,235a59.93,59.93,0,0,1,1.11-11.32,1.25,1.25,0,0,1,2.1-.66l34.41,34.41a1.23,1.23,0,0,1,.36.87v7.09a15.19,15.19,0,0,0,15.19,15.19Z" transform="translate(-11.98 -158.02)"/><path class="cls-5" d="M873.09,159a76,76,0,1,0,76,76A76,76,0,0,0,873.09,159Z" transform="translate(-11.98 -158.02)"/><circle class="cls-6" cx="208.35" cy="23.47" r="12.5"/><circle class="cls-6" cx="208.35" cy="130.48" r="12.5"/><g id="Layer_4" data-name="Layer 4"><path class="cls-7" d="M300.17,269.93c3.73,9.51,15.2,20.27,25.51,21.94a26.78,26.78,0,0,0,9.56.05c8.72-1.77,17.06-8.25,20.48-16v-7.77s-19.34-4.36-19.53-5.12-12.51,0-12.51,0l-13.46,4.93Z" transform="translate(-11.98 -158.02)"/><path class="cls-7" d="M259.21,272.4" transform="translate(-11.98 -158.02)"/></g><g id="Layer_8" data-name="Layer 8"><path class="cls-8" d="M421.69,250.83l-.28-.28a.22.22,0,0,0-.31.31l.28.28a.22.22,0,0,0,.31-.31Z" transform="translate(-11.98 -158.02)"/><path class="cls-9" d="M349.88,281a51.93,51.93,0,0,1-17.13.09c-4.86-.76-10.35-2.11-14-5.59-.2-.19-.51.11-.31.31,2.82,2.66,6.7,4,10.4,4.95a53.28,53.28,0,0,0,13.82,1.4,47.58,47.58,0,0,0,7.37-.73c.27,0,.16-.47-.12-.42Z" transform="translate(-11.98 -158.02)"/><path class="cls-9" d="M346.28,284a39.67,39.67,0,0,1-16.65-.06c-5.24-1.09-10.5-3.16-14.52-6.78-.21-.19-.52.12-.31.31,4.07,3.68,9.39,5.79,14.71,6.9a40.18,40.18,0,0,0,16.88.05c.27-.06.16-.48-.12-.42Z" transform="translate(-11.98 -158.02)"/><path class="cls-9" d="M342.3,287.2a35.62,35.62,0,0,1-16.14-.06A29.14,29.14,0,0,1,312.08,280c-.2-.19-.51.11-.31.31A29.5,29.5,0,0,0,326,287.56a36.2,36.2,0,0,0,16.37.06c.27-.06.16-.49-.12-.42Z" transform="translate(-11.98 -158.02)"/></g><g id="Layer_11" data-name="Layer 11"><path class="cls-10" d="M297.55,271.81c-9.29-4.9-14.43-15.83-14.19-26.33S288.56,225,295.31,217a55.66,55.66,0,0,0,5.75-7.37c1.52-2.61,2.42-5.54,3.94-8.15,2.94-5,8-8.51,13.37-10.85,2.49-1.09,5.12-2,7.27-3.66,1.2-.93,2.22-2.07,3.37-3.06a26,26,0,0,1,7.57-4.27A52.08,52.08,0,0,1,356.5,176v0a8.24,8.24,0,0,1,1.66.11c2.41.39,4.64,1.5,7.07,1.79,2.7.32,5.46-.14,8.16-.24a86.05,86.05,0,0,1,16.08.83,70.34,70.34,0,0,1,15.15,4A61.35,61.35,0,0,1,417,189a53.62,53.62,0,0,1,10.5,9.41l0,.05c9.31,7.24,16.63,17.55,18.26,29.21,1.67,12-3.64,25.2-14.29,30.94-5.34,2.88-11.48,3.75-17.39,5.09-.71.16-1.37-.71-1,3.65.41,4.69-1.14,10.76-5.69,13.84-5.88,4-13.92,4.71-14.6,4.93-8.44,2.69-14.22,2.09-22.7-.33-3.3-.95-5.8-3.83-9.1-4.76a29.25,29.25,0,0,0-6.39-.68,53.39,53.39,0,0,1-20.46-5.29,17.26,17.26,0,0,0-5-1.91,15.82,15.82,0,0,0-5.17.46C315.14,275.36,305.52,276,297.55,271.81Z" transform="translate(-11.98 -158.02)"/><path class="cls-11" d="M505.9,316.2" transform="translate(-11.98 -158.02)"/></g><g id="Layer_7" data-name="Layer 7"><path class="cls-12" d="M366.38,184.22c5.18,3,5,10.11,8.37,14.54.38.49,1.22,0,.84-.49-3.52-4.6-3.29-11.71-8.72-14.89a.48.48,0,0,0-.49.84Z" transform="translate(-11.98 -158.02)"/><path class="cls-12" d="M344.66,182.09a15,15,0,0,0,8,5.82c.6.19.85-.76.26-.93a14,14,0,0,1-7.45-5.38c-.35-.51-1.19,0-.84.49Z" transform="translate(-11.98 -158.02)"/><path class="cls-12" d="M350.81,187.14a5.46,5.46,0,0,0,1.19,5.5c1.55,1.81,3.89,2.68,6,3.52,4.3,1.68,10.36,4.42,9.65,10.06-.08.62.89.61,1,0,.59-4.67-3.47-8-7.28-9.72a71.4,71.4,0,0,1-6.64-2.88c-2.13-1.26-4-3.64-3-6.22.23-.58-.71-.83-.93-.26Z" transform="translate(-11.98 -158.02)"/><path class="cls-12" d="M375.17,199.13a11.76,11.76,0,0,1,6.61,2.84c.47.41,1.15-.27.68-.68a12.86,12.86,0,0,0-7.29-3.12c-.62-.06-.61.91,0,1Z" transform="translate(-11.98 -158.02)"/><path class="cls-12" d="M338.13,201.07a21.16,21.16,0,0,0,18,3.68.48.48,0,0,0-.26-.93,20.14,20.14,0,0,1-17-3.43C338.33,200,337.64,200.68,338.13,201.07Z" transform="translate(-11.98 -158.02)"/><path class="cls-12" d="M350.16,205.34a9.64,9.64,0,0,1,4.12,3.95c1.19,1.84,2.29,3.74,3.43,5.61l1.73,2.83a5.34,5.34,0,0,0,1.44,1.79,4,4,0,0,0,2.31.44h3.66a.48.48,0,0,0,0-1h-3.3c-1.23,0-2.14,0-2.88-1.1-1.23-1.84-2.32-3.79-3.47-5.69-1.78-2.92-3.45-6.4-6.79-7.79-.57-.24-.82.7-.26.93Z" transform="translate(-11.98 -158.02)"/><path class="cls-12" d="M360.53,219.43l-.73,6.93a28.1,28.1,0,0,1-.38,3.19,2.21,2.21,0,0,1-.86,1.48,1,1,0,0,1-1.44-.21.48.48,0,0,0-.83.49,1.94,1.94,0,0,0,2.44.7,3.05,3.05,0,0,0,1.67-2.49c.59-3.31.74-6.76,1.09-10.1.07-.62-.9-.61-1,0Z" transform="translate(-11.98 -158.02)"/><path class="cls-12" d="M365.88,230.16c-1.48,4.49-5.55,8.64-10.6,8.19s-8.19-5.29-9.4-9.8a46.62,46.62,0,0,1-1.18-10.69c0-.62-1-.62-1,0,.21,6.07.49,12.67,4.52,17.58a9.87,9.87,0,0,0,13.57,2,14,14,0,0,0,5-7c.19-.59-.74-.85-.93-.26Z" transform="translate(-11.98 -158.02)"/><path class="cls-12" d="M329.32,213.78c.65,5.59,1.1,11.26,2.2,16.79A31.57,31.57,0,0,0,337.19,244a20.28,20.28,0,0,0,10.76,7.35c2.73.7,5.58.67,8.34,1.19s5.46,1.42,8.22,2c4.65,1,10.46,1.17,13.94-2.65.42-.46-.26-1.14-.68-.68-3.15,3.46-8.44,3.37-12.65,2.48-2.53-.53-5-1.33-7.52-1.88s-5.18-.64-7.76-1.06a18.91,18.91,0,0,1-11.14-6.47,28.69,28.69,0,0,1-5.94-12.69c-1.33-5.85-1.75-11.92-2.44-17.87-.07-.61-1-.62-1,0Z" transform="translate(-11.98 -158.02)"/><path class="cls-12" d="M436.33,246a34.66,34.66,0,0,1-9.19.81c-2.58-.17-5.62-.76-7.63-2.51a18.1,18.1,0,0,1-1.84-2.37,4.76,4.76,0,0,0-2.8-1.58c-1.36-.28-2.77-.36-4.14-.57s-2.86-.5-4.28-.83a49.61,49.61,0,0,1-9.27-3.13c-.57-.26-1.05.57-.49.83a57,57,0,0,0,16.82,4.46,4.82,4.82,0,0,1,3.69,1.79,10.12,10.12,0,0,0,2,2.36,14,14,0,0,0,7.11,2.44,34.27,34.27,0,0,0,10.31-.76c.61-.12.35-1.06-.26-.93Z" transform="translate(-11.98 -158.02)"/><path class="cls-12" d="M425.56,248a9.75,9.75,0,0,1-9.84,7.28c-.62,0-.62.95,0,1a10.72,10.72,0,0,0,10.77-8C426.63,247.64,425.7,247.38,425.56,248Z" transform="translate(-11.98 -158.02)"/><path class="cls-12" d="M392.28,195.6a29.46,29.46,0,0,0-.43,9.06c.28,2.49.91,5.54-.91,7.63-.41.47.27,1.15.68.68,1.76-2,1.61-4.68,1.33-7.17a31.58,31.58,0,0,1,.27-9.94c.12-.61-.81-.87-.93-.26Z" transform="translate(-11.98 -158.02)"/><path class="cls-12" d="M397.79,215.08c1.79-1.1,3.6-2.17,5.38-3.29a7.18,7.18,0,0,0,3.14-3.38c1.27-3.31-.46-6.65-2-9.5-.3-.54-1.14-.06-.83.49,1.46,2.62,3.24,5.86,1.89,8.91-.68,1.52-2.15,2.35-3.51,3.19l-4.51,2.74c-.53.32,0,1.16.49.84Z" transform="translate(-11.98 -158.02)"/><path class="cls-12" d="M367.74,205.05a6.39,6.39,0,0,1-1.91,5.26.49.49,0,0,0,.34.82,18.11,18.11,0,0,1,12.35,6,20.27,20.27,0,0,1,5,13.42.48.48,0,0,0,1,0,21.29,21.29,0,0,0-5.3-14.1,19.09,19.09,0,0,0-13-6.29l.34.83a7.31,7.31,0,0,0,2.19-5.95c-.05-.62-1-.62-1,0Z" transform="translate(-11.98 -158.02)"/><path class="cls-12" d="M320.47,224.72c.05,1.85,0,4.16-1.71,5.29s-3.63-.59-4.81-1.94c-2.38-2.72-5-6-4.59-9.81.07-.62-.9-.61-1,0a10,10,0,0,0,1.63,6.26,25,25,0,0,0,4.47,5.53c1.44,1.29,3.36,1.87,5,.61,1.85-1.41,2-3.79,1.92-5.94,0-.62-1-.62-1,0Z" transform="translate(-11.98 -158.02)"/><path class="cls-12" d="M309.17,221.39c-2.11-1.36-4.81-.19-6,1.85a8.42,8.42,0,0,0-1,3.88c-.06,1.61.21,3.29-.63,4.74a.48.48,0,0,0,.84.49c1.2-2.09.48-4.51.93-6.77a4.86,4.86,0,0,1,1.9-3.21,3.11,3.11,0,0,1,3.41-.15c.52.34,1-.5.49-.83Z" transform="translate(-11.98 -158.02)"/><path class="cls-12" d="M306.08,220.87a3.56,3.56,0,0,1-1.64-3,.48.48,0,0,0-1,0,4.57,4.57,0,0,0,2.12,3.84C306.12,222.05,306.6,221.21,306.08,220.87Z" transform="translate(-11.98 -158.02)"/><path class="cls-12" d="M300.58,219.8a18.87,18.87,0,0,1,6-6.57,9.22,9.22,0,0,1,8.69-.8c.57.27,1.05-.57.49-.83a10.05,10.05,0,0,0-9.14.49c-3,1.62-5.11,4.39-6.83,7.23-.33.53.51,1,.83.49Z" transform="translate(-11.98 -158.02)"/><path class="cls-12" d="M338.22,200.22a24.3,24.3,0,0,0-6.59-.45,16.34,16.34,0,0,0-4.9,1.36,18.61,18.61,0,0,0-8.15,7.35c-.33.53.51,1,.83.49a17.84,17.84,0,0,1,7.56-6.88c3.58-1.69,7.18-1.55,11-.93.61.1.87-.83.26-.93Z" transform="translate(-11.98 -158.02)"/><path class="cls-12" d="M320,206a6.48,6.48,0,0,1-4-4.78c-.12-.61-1.05-.35-.93.26a7.46,7.46,0,0,0,4.64,5.45c.57.23.83-.7.26-.93Z" transform="translate(-11.98 -158.02)"/><path class="cls-12" d="M319.94,192.86a9.1,9.1,0,0,0,1.35,4.27c.33.53,1.16,0,.83-.49a8,8,0,0,1-1.22-3.79c0-.62-1-.62-1,0Z" transform="translate(-11.98 -158.02)"/><path class="cls-12" d="M340.35,191.6a5.41,5.41,0,0,0-4.21-4.08c-2.7-.69-5.46.33-8,1.28-.57.22-.33,1.15.26.93,2.17-.82,4.56-1.78,6.92-1.39a4.62,4.62,0,0,1,4.05,3.52c.1.61,1,.35.93-.26Z" transform="translate(-11.98 -158.02)"/><path class="cls-12" d="M343,188.8A18.55,18.55,0,0,0,335.45,200c-.13.61.8.86.93.26a17.55,17.55,0,0,1,7.1-10.63C344,189.28,343.51,188.44,343,188.8Z" transform="translate(-11.98 -158.02)"/><path class="cls-12" d="M338.76,248.48c-.4,3.67.13,7.61,2.35,10.65a10.42,10.42,0,0,0,8.42,4.41.48.48,0,0,0,0-1,9.49,9.49,0,0,1-7.9-4.39,14.65,14.65,0,0,1-1.9-9.7c.07-.62-.9-.61-1,0Z" transform="translate(-11.98 -158.02)"/><path class="cls-12" d="M338.26,256.88c-4.06.18-8.15.3-12.21.22-3.17-.06-6.7-.42-9-2.84-.43-.45-1.11.23-.68.68,2.28,2.41,5.66,3,8.84,3.11,4.34.19,8.72,0,13.07-.19.62,0,.62-1,0-1Z" transform="translate(-11.98 -158.02)"/><path class="cls-12" d="M332,232.39c.09,3.11-2,5.64-4.11,7.72s-4.67,4.12-7.83,4c-6.79-.19-9.88-7.28-11.93-12.67-.22-.57-1.15-.33-.93.26,1.86,4.89,4.07,10.24,9.18,12.51a9,9,0,0,0,7.16.22,17.32,17.32,0,0,0,5.88-4.54c1.92-2.09,3.63-4.58,3.55-7.53,0-.62-1-.62-1,0Z" transform="translate(-11.98 -158.02)"/><path class="cls-12" d="M310,238.21c-2,.78-2,3-2,4.86l.07,4.49a18.63,18.63,0,0,1,0,2c-.07.81-.62,2.23-1.73,1.68-.56-.28-1,.56-.49.83a2,2,0,0,0,2.51-.56c.86-1,.68-2.54.66-3.76,0-1.68-.06-3.36-.08-5,0-1.19,0-3,1.31-3.57.57-.23.32-1.16-.26-.93Z" transform="translate(-11.98 -158.02)"/><path class="cls-12" d="M321,256.7c-1.08,1.07-1.23,2.46-1.47,3.9-.29,1.73-1,3-2.95,3a30.47,30.47,0,0,1-4-.61,15.93,15.93,0,0,0-5.74.38c-.6.14-.35,1.08.26.93a14.65,14.65,0,0,1,6.1-.23,12.31,12.31,0,0,0,4.17.44,3.41,3.41,0,0,0,2.75-2.3c.59-1.6.26-3.57,1.56-4.85a.48.48,0,0,0-.68-.68Z" transform="translate(-11.98 -158.02)"/><path class="cls-12" d="M318,264.15a6.17,6.17,0,0,0,4,7.08c.59.21.84-.72.26-.93a5.17,5.17,0,0,1-3.31-5.88c.14-.6-.8-.86-.93-.26Z" transform="translate(-11.98 -158.02)"/><path class="cls-12" d="M366.26,257.9c.49,1.54-.55,3-1.83,3.75a11.58,11.58,0,0,1-4.6,1.21,17.08,17.08,0,0,0-4.3,1.09c-1.33.55-2.58,1.24-3.85,1.88a14.21,14.21,0,0,1-8.67,1.65,74.23,74.23,0,0,1-8.24-2.06c-3-.76-6-1.22-9-.36a.48.48,0,0,0,.26.93c6-1.74,12,2.07,17.91,2.56a15.49,15.49,0,0,0,8.5-2,33.22,33.22,0,0,1,4.5-2.09,36.62,36.62,0,0,1,5-.93c2.7-.49,6.37-2.56,5.3-5.88-.19-.59-1.12-.34-.93.26Z" transform="translate(-11.98 -158.02)"/><path class="cls-12" d="M335.25,265.72l-5.94,5.53c-.46.43.23,1.11.68.68l5.93-5.53c.46-.43-.23-1.11-.68-.68Z" transform="translate(-11.98 -158.02)"/><path class="cls-12" d="M364.11,262.43a15.39,15.39,0,0,1-.13,9.79c-.2.59.73.84.93.26a16.29,16.29,0,0,0,.13-10.31C364.85,261.59,363.92,261.84,364.11,262.43Z" transform="translate(-11.98 -158.02)"/><path class="cls-12" d="M312.59,241.51a75.09,75.09,0,0,1,5.68,9.31c.28.55,1.12.06.83-.49a75.07,75.07,0,0,0-5.68-9.31c-.36-.5-1.2,0-.84.49Z" transform="translate(-11.98 -158.02)"/><path class="cls-12" d="M321,194.81c-2.36-.76-4.34,1.08-6,2.46a17.37,17.37,0,0,1-7.5,3.6c-.61.13-.35,1.06.26.93a18.16,18.16,0,0,0,6.59-2.82c1.81-1.26,3.94-4,6.42-3.24.6.19.85-.75.26-.93Z" transform="translate(-11.98 -158.02)"/><path class="cls-12" d="M389.79,258.84a22,22,0,0,1,5.79,15.71.49.49,0,0,0,.73.42,8.1,8.1,0,0,1,6.07-.71.48.48,0,0,0,.26-.93,9.12,9.12,0,0,0-6.81.81l.73.42a23,23,0,0,0-6.07-16.39c-.42-.46-1.1.23-.68.68Z" transform="translate(-11.98 -158.02)"/><path class="cls-12" d="M395.59,274.31a10.14,10.14,0,0,1-8.94,8.79c-.61.06-.62,1,0,1a11.13,11.13,0,0,0,9.91-9.76c.06-.62-.91-.62-1,0Z" transform="translate(-11.98 -158.02)"/><path class="cls-12" d="M380.73,279.35c-3.45,1.19-6.46-1.71-9.43-3a7.81,7.81,0,0,0-4.11-.63c-1.72.22-3.42.92-5.17.5-.6-.14-.86.79-.26.93a11,11,0,0,0,4.71-.35,8,8,0,0,1,5.49.92c2.78,1.44,5.73,3.65,9,2.51.58-.2.33-1.14-.26-.93Z" transform="translate(-11.98 -158.02)"/><path class="cls-12" d="M371.27,277.52a5.27,5.27,0,0,1-4.91,2.08c-.62-.07-.61.9,0,1a6.22,6.22,0,0,0,5.75-2.55c.37-.5-.47-1-.84-.49Z" transform="translate(-11.98 -158.02)"/><path class="cls-12" d="M375.21,279a6.33,6.33,0,0,0-.15,6.52.48.48,0,0,0,.83-.49,5.35,5.35,0,0,1,.15-5.55C376.38,279,375.55,278.47,375.21,279Z" transform="translate(-11.98 -158.02)"/><path class="cls-12" d="M383.54,271.18a8.59,8.59,0,0,0,5.78-7.32c.05-.62-.91-.62-1,0a7.58,7.58,0,0,1-5.07,6.39c-.58.2-.33,1.14.26.93Z" transform="translate(-11.98 -158.02)"/><path class="cls-12" d="M383.29,271.5a10.74,10.74,0,0,1,4.36,3.49c.36.5,1.2,0,.84-.49a11.64,11.64,0,0,0-4.7-3.84c-.57-.25-1.06.58-.49.83Z" transform="translate(-11.98 -158.02)"/><path class="cls-12" d="M359,273.33a3.09,3.09,0,0,1-4.72,2.21c-1.34-.84-1.45-2.84-3.12-3.26a.48.48,0,0,0-.26.93c1.06.27,1.35,1.65,2,2.41a4.14,4.14,0,0,0,2.63,1.37,4,4,0,0,0,4.41-3.39c.09-.61-.84-.87-.93-.26Z" transform="translate(-11.98 -158.02)"/><path class="cls-12" d="M350.54,272.44a12.86,12.86,0,0,1-11.31,1c-.58-.22-.83.71-.26.93A13.78,13.78,0,0,0,351,273.28c.53-.32,0-1.16-.49-.83Z" transform="translate(-11.98 -158.02)"/><path class="cls-12" d="M404.64,262.89a30.34,30.34,0,0,0-.92,5.73.49.49,0,0,0,.73.42,3.94,3.94,0,0,1,3.91.32c.52.35,1-.49.49-.84a4.92,4.92,0,0,0-4.88-.32l.73.42a28.92,28.92,0,0,1,.9-5.47.48.48,0,0,0-.93-.26Z" transform="translate(-11.98 -158.02)"/><path class="cls-12" d="M401.63,277.3a11.75,11.75,0,0,1-5.9,5c-.59.19-.34,1.14.26.93a12.71,12.71,0,0,0,6.48-5.47c.34-.53-.5-1-.84-.49Z" transform="translate(-11.98 -158.02)"/><path class="cls-12" d="M310,237.12a3.31,3.31,0,0,1-2.9-.09c-.55-.29-1,.54-.49.83a4.23,4.23,0,0,0,3.65.19c.57-.24.32-1.17-.26-.93Z" transform="translate(-11.98 -158.02)"/><path class="cls-12" d="M384.12,231.33a10.32,10.32,0,0,1,5.07-4.53,12.76,12.76,0,0,1,7.21-.34c.61.13.87-.81.26-.93a13.65,13.65,0,0,0-7.93.43,11.31,11.31,0,0,0-5.43,4.89.48.48,0,0,0,.84.49Z" transform="translate(-11.98 -158.02)"/><path class="cls-12" d="M383.79,261.9a4.91,4.91,0,0,0-2.74,2c-.81,1.07-1.33,2.57-2.31,3.49-.18.17-.53.44-.8.38s-.5-.38-.67-.52c-.34-.28-.67-.58-1-.87a14.18,14.18,0,0,0-1.94-1.48,5.1,5.1,0,0,0-4.47-.61c-.57.22-.32,1.16.26.93,1.94-.76,3.76.38,5.21,1.62.85.72,2.28,2.57,3.54,1.75,1-.64,1.6-2,2.2-3,.74-1.19,1.54-2.39,3-2.75a.48.48,0,0,0-.26-.93Z" transform="translate(-11.98 -158.02)"/><path class="cls-12" d="M392.7,226c5.93,0,12.13,3.41,14.32,9.13.22.57,1.16.32.93-.26-2.35-6.11-8.85-9.83-15.26-9.84a.48.48,0,0,0,0,1Z" transform="translate(-11.98 -158.02)"/><path class="cls-12" d="M416.44,234.57a28.48,28.48,0,0,1-2.49-23.43c.2-.59-.74-.85-.93-.26a29.44,29.44,0,0,0,2.59,24.18.48.48,0,0,0,.84-.49Z" transform="translate(-11.98 -158.02)"/><path class="cls-12" d="M383.63,187.74a27.28,27.28,0,0,1,25,9.59c.39.48,1.08-.2.68-.68a28.23,28.23,0,0,0-25.94-9.84c-.61.1-.35,1,.26.93Z" transform="translate(-11.98 -158.02)"/><path class="cls-12" d="M390.57,212.76q.46-.2.09-.35a.39.39,0,0,1-.23-.26,6.29,6.29,0,0,1-.36-.71c-.25-.47-.5-.95-.78-1.39a9.07,9.07,0,0,0-1.95-2.28,5.19,5.19,0,0,0-4.91-1c-.59.2-.33,1.14.26.93,2.75-.95,4.95,1.37,6.17,3.55.42.74.68,1.83,1.53,2.18.57.23,1.15,0,1.15-.63a.48.48,0,0,0-1,0Z" transform="translate(-11.98 -158.02)"/><path class="cls-12" d="M398.45,214.84a5.8,5.8,0,0,1,5.82,2.85.48.48,0,0,0,.84-.49,6.8,6.8,0,0,0-6.9-3.3c-.61.09-.35,1,.26.93Z" transform="translate(-11.98 -158.02)"/><path class="cls-12" d="M366,228.93a11.31,11.31,0,0,0,13.5,13.5c.61-.13.35-1.06-.26-.93a10.34,10.34,0,0,1-12.31-12.31C367.07,228.58,366.14,228.32,366,228.93Z" transform="translate(-11.98 -158.02)"/><path class="cls-12" d="M411.32,260.59c-4.88-8.78-16.21-12.29-25.69-11.24a27.8,27.8,0,0,0-8.38,2.25c-.57.26-.08,1.09.49.84a28.58,28.58,0,0,1,19-1.28c5.5,1.52,10.88,4.83,13.7,9.92.3.54,1.14.06.83-.49Z" transform="translate(-11.98 -158.02)"/><path class="cls-12" d="M423,210.57c.6,3,1.29,5.91,1.75,8.89a5.55,5.55,0,0,0,1,2.84,16.31,16.31,0,0,0,2.71,1.92,12.76,12.76,0,0,1,4,14.36c-.22.58.71.83.93.26a13.77,13.77,0,0,0-2.9-14.09,11.91,11.91,0,0,0-2.62-2.09,4.12,4.12,0,0,1-1.57-1.27,5.5,5.5,0,0,1-.57-1.9c-.51-3.08-1.18-6.12-1.8-9.18-.12-.61-1.06-.35-.93.26Z" transform="translate(-11.98 -158.02)"/><path class="cls-12" d="M303.77,231.63a23.42,23.42,0,0,0-13.27,5.27c-.48.39.2,1.08.68.68a22.32,22.32,0,0,1,12.59-5c.62,0,.62-1,0-1Z" transform="translate(-11.98 -158.02)"/><path class="cls-12" d="M303.05,240.08l-4.13,3.19a30.93,30.93,0,0,1-3.89,2.81,4.27,4.27,0,0,1-4.38.19,10,10,0,0,1-2.87-3.1c-.35-.51-1.19,0-.83.49,1.72,2.49,4,5,7.33,3.82a15.91,15.91,0,0,0,4.29-2.72l5.16-4c.49-.38-.19-1.06-.68-.68Z" transform="translate(-11.98 -158.02)"/><path class="cls-12" d="M437.64,224.91a11.74,11.74,0,0,1,1.09,12.58c-.29.55.54,1,.83.49a12.74,12.74,0,0,0-1.24-13.74c-.38-.49-1.06.2-.68.68Z" transform="translate(-11.98 -158.02)"/><path class="cls-12" d="M436.07,224.78a4.85,4.85,0,0,0,5.33-2.07c.34-.52-.5-1-.83-.49a3.86,3.86,0,0,1-4.23,1.63A.48.48,0,0,0,436.07,224.78Z" transform="translate(-11.98 -158.02)"/><path class="cls-12" d="M294,258.55a6.54,6.54,0,0,1-.45-4.23,3.76,3.76,0,0,1,2.8-2.35c1.86-.57,4.21-.74,5.18-2.7.27-.56-.57-1-.84-.49-1.09,2.21-4.46,1.81-6.33,3-2.42,1.53-2.2,4.67-1.28,7,.22.57,1.16.32.93-.26Z" transform="translate(-11.98 -158.02)"/><path class="cls-12" d="M293.26,259.22l4.3,6a44.6,44.6,0,0,0,3.88,5.12,5.94,5.94,0,0,0,4.13,2.14,4,4,0,0,0,3.55-2.2.48.48,0,0,0-.83-.49,3.1,3.1,0,0,1-3.73,1.57c-1.61-.5-2.81-2-3.79-3.32-2.3-3.05-4.45-6.21-6.66-9.31-.36-.5-1.2,0-.84.49Z" transform="translate(-11.98 -158.02)"/><path class="cls-12" d="M306.42,252.19a3.74,3.74,0,0,1,2.36,6.38c-.44.45.25,1.14.68.68a4.72,4.72,0,0,0-3-8c-.62,0-.62.92,0,1Z" transform="translate(-11.98 -158.02)"/><path class="cls-12" d="M418.81,203.85a19.84,19.84,0,0,0,4.21,5.89c1.54,1.48,3.6,3.3,5.9,2.79.61-.13.35-1.07-.26-.93-2.12.46-4.3-1.81-5.62-3.21a19.07,19.07,0,0,1-3.4-5c-.27-.57-1.1-.07-.84.49Z" transform="translate(-11.98 -158.02)"/><path class="cls-12" d="M432.06,247.06a6.38,6.38,0,0,1-.43,5.22c-.3.55.54,1,.84.49a7.35,7.35,0,0,0,.52-6c-.19-.59-1.14-.33-.93.26Z" transform="translate(-11.98 -158.02)"/><path class="cls-12" d="M362.77,182c1,1.74,3,2.12,4.82,2.25s4.92.1,5.42,2.44c.13.61,1.06.35.93-.26-.42-2-2.46-2.76-4.26-3-2-.27-4.91.19-6.07-1.92-.3-.54-1.14-.06-.84.49Z" transform="translate(-11.98 -158.02)"/></g><g class="cls-13"><g class="cls-13"><g class="cls-14"><g class="cls-14"><polygon class="cls-15" points="134.57 38.85 134.57 116.55 67.29 155.4 67.29 77.7 100.93 58.27 134.57 38.85"/><polygon class="cls-16" points="134.57 38.85 100.93 58.27 67.29 37.43 67.29 0 134.57 38.85"/><polygon class="cls-17" points="100.93 58.27 67.29 77.7 33.64 58.27 67.29 37.43 100.93 58.27"/><polygon class="cls-18" points="67.29 77.7 67.29 155.4 0 116.55 0 38.85 33.64 58.27 67.29 77.7"/><polygon class="cls-19" points="67.29 0 67.29 37.43 33.64 58.27 0 38.85 67.29 0"/></g></g></g></g></svg>