<?xml version="1.0" encoding="utf-8"?>
<!-- Generator: Adobe Illustrator 21.1.0, SVG Export Plug-In . SVG Version: 6.00 Build 0)  -->
<svg version="1.1" id="Layer_1" xmlns="http://www.w3.org/2000/svg" xmlns:xlink="http://www.w3.org/1999/xlink" x="0px" y="0px"
	 viewBox="0 0 1764 1351" style="enable-background:new 0 0 1764 1351;" xml:space="preserve">
<style type="text/css">
	.st0{fill:#DEFFFF;stroke:#DEFFFF;stroke-miterlimit:10;}
	.st1{fill:#DEFFFF;stroke:#DEFFFF;stroke-width:1.097;stroke-linecap:round;stroke-linejoin:round;}
</style>
<title>star-bg</title>
<g>
	<g>
		<g id="XMLID_1_">
			<g>
				<path class="st0" d="M117.9,278.8c0.1,0,0.1,0.1,0.1,0.2c0.1,0.2,0,0.4-0.2,0.5L115,281c-0.1,0-0.1,0.1-0.2,0.2l-1.5,2.8
					c0,0.1-0.1,0.1-0.2,0.2c-0.2,0.1-0.4,0-0.5-0.2l-1.5-2.8c0-0.1-0.1-0.1-0.2-0.2l-2.7-1.5c-0.1,0-0.1-0.1-0.2-0.2
					c-0.1-0.2,0-0.4,0.2-0.5l2.8-1.5c0.1,0,0.1-0.1,0.2-0.2l1.5-2.7c0.1-0.3,0.5-0.3,0.7,0l1.5,2.8c0,0.1,0.1,0.1,0.2,0.2
					L117.9,278.8z"/>
				<path class="st0" d="M117.6,1124.8c0.2,0.1,0.3,0.3,0.1,0.5c0,0.1-0.1,0.1-0.2,0.2l-2.8,1.5c-0.1,0-0.1,0.1-0.2,0.2l-1.5,2.7
					c-0.1,0.2-0.4,0.3-0.5,0.2c-0.1,0-0.1-0.1-0.1-0.2l-1.5-2.8c0-0.1-0.1-0.1-0.2-0.2l-2.7-1.5c-0.2-0.1-0.3-0.4-0.2-0.5
					c0-0.1,0.1-0.1,0.2-0.1l2.8-1.5c0.1,0,0.1-0.1,0.2-0.2l1.5-2.7c0.1-0.2,0.4-0.3,0.5-0.2c0.1,0,0.1,0.1,0.2,0.2l1.5,2.8
					c0,0.1,0.1,0.1,0.2,0.2L117.6,1124.8z"/>
				<path class="st0" d="M141,1269c0,0.1,0.1,0.1,0.1,0.2l1.4,0.7c0.2,0.1,0.3,0.4,0.2,0.5c0,0.1-0.1,0.1-0.2,0.2l-1.4,0.7
					c-0.1,0-0.1,0.1-0.2,0.2l-0.8,1.4c-0.1,0.2-0.3,0.3-0.5,0.2c-0.1,0-0.1-0.1-0.2-0.2l-0.7-1.4c0-0.1-0.1-0.1-0.2-0.2l-1.4-0.7
					c-0.2-0.1-0.3-0.4-0.1-0.5c0-0.1,0.1-0.1,0.2-0.2l1.4-0.7c0.1,0,0.1-0.1,0.2-0.2l0.7-1.4c0.1-0.2,0.4-0.3,0.5-0.1
					c0.1,0,0.1,0.1,0.1,0.2L141,1269z"/>
				<path class="st0" d="M140.1,857.1l1.5-2.7c0.1-0.2,0.4-0.3,0.5-0.2c0.1,0,0.1,0.1,0.2,0.2l1.5,2.8c0,0.1,0.1,0.1,0.2,0.2
					l2.8,1.5c0.2,0.1,0.3,0.3,0.1,0.5c0,0.1-0.1,0.1-0.2,0.2l-2.8,1.5c-0.1,0-0.1,0.1-0.2,0.1l-1.5,2.8c-0.1,0.2-0.4,0.3-0.5,0.1
					c-0.1,0-0.1-0.1-0.1-0.2l-1.5-2.8c0-0.1-0.1-0.1-0.2-0.2l0,0l-2.7-1.5c-0.2-0.1-0.3-0.4-0.2-0.5c0-0.1,0.1-0.1,0.2-0.2
					L140.1,857.1C140,857.2,140,857.2,140.1,857.1z"/>
				<path class="st0" d="M141.6,140.4c-0.1,0-0.1,0.1-0.2,0.2l-0.8,1.4c0,0.1-0.1,0.1-0.2,0.1c-0.2,0.1-0.4,0-0.5-0.2l-0.7-1.4
					c0-0.1-0.1-0.1-0.2-0.2l-1.4-0.7c-0.1,0-0.1-0.1-0.1-0.2c-0.1-0.2,0-0.4,0.2-0.5l1.4-0.7c0.1,0,0.1-0.1,0.2-0.2l0.7-1.4
					c0.2-0.3,0.5-0.3,0.7,0l0.7,1.4c0,0.1,0.1,0.1,0.1,0.2l1.4,0.7c0.1,0,0.1,0.1,0.2,0.2c0.1,0.2,0,0.4-0.2,0.5L141.6,140.4z"/>
				<path class="st0" d="M167.5,232.2l1.4,0.7c0.1,0,0.1,0.1,0.2,0.2c0.1,0.2,0,0.4-0.2,0.5l-1.4,0.7c-0.1,0-0.1,0.1-0.2,0.1
					l-0.8,1.4c0,0.1-0.1,0.1-0.2,0.2c-0.2,0.1-0.4,0-0.5-0.2l-0.7-1.4c0-0.1-0.1-0.1-0.2-0.2l-1.4-0.7c-0.1,0-0.1-0.1-0.1-0.2
					c-0.1-0.2,0-0.4,0.2-0.5l1.4-0.7c0.1,0,0.1-0.1,0.2-0.2l0.7-1.4c0.2-0.3,0.5-0.3,0.7,0l0.7,1.4
					C167.4,232.1,167.5,232.2,167.5,232.2z"/>
				<path class="st0" d="M167.8,1003.2c0.1,0,0.1-0.1,0.2-0.2l0.7-1.4c0.1-0.2,0.4-0.3,0.5-0.1c0.1,0,0.1,0.1,0.1,0.2l0.7,1.4
					c0,0.1,0.1,0.1,0.1,0.2l1.4,0.7c0.2,0.1,0.3,0.4,0.2,0.5c0,0.1-0.1,0.1-0.2,0.2l-1.4,0.7c-0.1,0-0.1,0.1-0.2,0.1l-0.8,1.4
					c-0.1,0.2-0.3,0.3-0.5,0.2c-0.1,0-0.1-0.1-0.2-0.2l-0.7-1.4c0-0.1-0.1-0.1-0.2-0.2l-1.4-0.7c-0.2-0.1-0.3-0.4-0.1-0.5
					c0-0.1,0.1-0.1,0.2-0.2L167.8,1003.2z"/>
				<path class="st0" d="M193.5,1338.1c0.2,0.1,0.2,0.3,0.1,0.5c0,0.1-0.1,0.1-0.2,0.2l-1.3,0.7c-0.1,0-0.1,0.1-0.2,0.2l-0.7,1.3
					c-0.1,0.2-0.3,0.2-0.5,0.2c-0.1,0-0.1-0.1-0.2-0.2l-0.7-1.3c0-0.1-0.1-0.1-0.1-0.2l-1.3-0.7c-0.3-0.2-0.3-0.5,0-0.7l1.3-0.7
					c0.1,0,0.1-0.1,0.2-0.1l0.7-1.3c0.1-0.2,0.3-0.2,0.5-0.1c0.1,0,0.1,0.1,0.1,0.1l0.7,1.3c0,0.1,0.1,0.1,0.2,0.2L193.5,1338.1z"/>
				<path class="st0" d="M194,39.1c0.1,0,0.1,0.1,0.1,0.2c0.1,0.2,0,0.4-0.2,0.5l-1.3,0.7c-0.1,0-0.1,0.1-0.2,0.1l-0.7,1.3
					c0,0.1-0.1,0.1-0.1,0.1c-0.2,0.1-0.4,0-0.5-0.1l-0.7-1.3c0-0.1-0.1-0.1-0.1-0.2l-1.3-0.7c-0.1,0-0.1-0.1-0.1-0.1
					c-0.1-0.2,0-0.4,0.1-0.5l1.3-0.7c0.1,0,0.1-0.1,0.2-0.1l0.7-1.3c0-0.1,0.1-0.1,0.2-0.1c0.2-0.1,0.4,0,0.5,0.2l0.7,1.3
					c0,0.1,0.1,0.1,0.1,0.2L194,39.1z"/>
				<path class="st0" d="M193.5,760.1l2.8-1.5c0.1,0,0.1-0.1,0.2-0.2l1.5-2.7c0.1-0.2,0.3-0.3,0.5-0.1c0.1,0,0.1,0.1,0.2,0.2
					l1.5,2.8c0,0.1,0.1,0.1,0.1,0.2l2.8,1.5c0.2,0.1,0.3,0.4,0.1,0.5c0,0.1-0.1,0.1-0.2,0.1l-2.8,1.5c-0.1,0-0.1,0.1-0.2,0.1
					l-1.5,2.8c-0.1,0.2-0.4,0.3-0.5,0.2c-0.1,0-0.1-0.1-0.1-0.2l-1.5-2.8c0-0.1-0.1-0.1-0.2-0.2l-2.7-1.5c-0.2-0.1-0.3-0.3-0.2-0.5
					C193.4,760.2,193.4,760.1,193.5,760.1z"/>
				<path class="st0" d="M209,405.4c-0.1,0-0.1-0.1-0.1-0.2c-0.1-0.2,0-0.4,0.2-0.5l1.4-0.7c0.1,0,0.1-0.1,0.2-0.2l0.7-1.4
					c0-0.1,0.1-0.1,0.2-0.1c0.2-0.1,0.4,0,0.5,0.2l0.7,1.4c0,0.1,0.1,0.1,0.1,0.2l1.4,0.7c0.1,0,0.1,0.1,0.2,0.2
					c0.1,0.2,0,0.4-0.2,0.5l-1.4,0.7c-0.1,0-0.1,0.1-0.2,0.1l-0.7,1.4c0,0.1-0.1,0.1-0.2,0.2c-0.2,0.1-0.4,0-0.5-0.2l-0.7-1.4
					c0-0.1-0.1-0.1-0.2-0.2L209,405.4z"/>
				<path class="st0" d="M215.8,951.6c-0.2-0.1-0.3-0.4-0.1-0.5c0-0.1,0.1-0.1,0.2-0.1l1.4-0.7c0.1,0,0.1-0.1,0.2-0.1l0.7-1.4
					c0.1-0.2,0.4-0.3,0.5-0.2c0.1,0,0.1,0.1,0.2,0.2l0.7,1.4c0,0.1,0.1,0.1,0.1,0.2l1.4,0.8c0.2,0.1,0.3,0.3,0.2,0.5
					c0,0.1-0.1,0.1-0.2,0.2l-1.4,0.7c-0.1,0-0.1,0.1-0.2,0.2l-0.8,1.4c-0.1,0.2-0.3,0.3-0.5,0.2c-0.1,0-0.1-0.1-0.2-0.2l-0.7-1.4
					c0-0.1-0.1-0.1-0.2-0.2L215.8,951.6z"/>
				<path class="st0" d="M309.5,518c0,0.1-0.1,0.1-0.2,0.1c-0.2,0.1-0.4,0-0.5-0.2l-0.7-1.4c0-0.1-0.1-0.1-0.2-0.2l-1.4-0.7
					c-0.1,0-0.1-0.1-0.1-0.2c-0.1-0.2,0-0.4,0.2-0.5l1.4-0.7c0.1,0,0.1-0.1,0.2-0.2l0.7-1.4c0.2-0.3,0.5-0.3,0.7,0l0.7,1.4
					c0,0.1,0.1,0.1,0.1,0.2l1.4,0.7c0.1,0,0.1,0.1,0.2,0.2c0.1,0.2,0,0.4-0.2,0.5l-1.4,0.7c-0.1,0-0.1,0.1-0.2,0.2L309.5,518z"/>
				<path class="st0" d="M309.4,982.9c-0.1,0.2-0.3,0.3-0.5,0.2c-0.1,0-0.1-0.1-0.2-0.2l-0.7-1.4c0-0.1-0.1-0.1-0.2-0.2l-1.4-0.7
					c-0.2-0.1-0.3-0.4-0.1-0.5c0-0.1,0.1-0.1,0.2-0.2l1.4-0.7c0.1,0,0.1-0.1,0.2-0.2l0.7-1.4c0.1-0.2,0.4-0.3,0.5-0.1
					c0.1,0,0.1,0.1,0.1,0.2l0.7,1.4c0,0.1,0.1,0.1,0.1,0.2l1.4,0.7c0.2,0.1,0.3,0.4,0.2,0.5c0,0.1-0.1,0.1-0.2,0.2l-1.4,0.7
					c-0.1,0-0.1,0.1-0.2,0.1L309.4,982.9z"/>
				<path class="st0" d="M343.3,327.9l2.8-1.5c0.1,0,0.1-0.1,0.2-0.2l1.5-2.7c0.1-0.3,0.5-0.3,0.7,0l1.5,2.8c0,0.1,0.1,0.1,0.2,0.2
					l2.8,1.5c0.1,0,0.1,0.1,0.1,0.2c0.1,0.2,0,0.4-0.2,0.5l-2.8,1.5c-0.1,0-0.1,0.1-0.2,0.2l-1.5,2.8c0,0.1-0.1,0.1-0.2,0.2
					c-0.2,0.1-0.4,0-0.5-0.2l-1.5-2.8c0-0.1-0.1-0.1-0.2-0.2l-2.7-1.5c-0.1,0-0.1-0.1-0.2-0.2C343.1,328.2,343.2,328,343.3,327.9z"
					/>
				<path class="st0" d="M400.2,304.6c0-0.1-0.1-0.1-0.2-0.2l-1.4-0.7c-0.1,0-0.1-0.1-0.1-0.2c-0.1-0.2,0-0.4,0.2-0.5l1.4-0.7
					c0.1,0,0.1-0.1,0.2-0.2l0.7-1.4c0.2-0.3,0.5-0.3,0.7,0l0.7,1.4c0,0.1,0.1,0.1,0.1,0.2l1.4,0.7c0.1,0,0.1,0.1,0.2,0.2
					c0.1,0.2,0,0.4-0.2,0.5l-1.4,0.7c-0.1,0-0.1,0.1-0.2,0.1l-0.8,1.4c0,0.1-0.1,0.1-0.2,0.2c-0.2,0.1-0.4,0-0.5-0.2L400.2,304.6z"
					/>
				<path class="st0" d="M420.8,617.2c0,0.1,0.1,0.1,0.2,0.2l2.8,1.5c0.1,0,0.1,0.1,0.1,0.2c0.1,0.2,0,0.4-0.2,0.5l-2.8,1.5
					c-0.1,0-0.1,0.1-0.2,0.2l-1.5,2.7c0,0.1-0.1,0.1-0.2,0.2c-0.2,0.1-0.4,0-0.5-0.2l-1.5-2.8c0-0.1-0.1-0.1-0.2-0.2l-2.7-1.5
					c-0.1,0-0.1-0.1-0.2-0.2c-0.1-0.2,0-0.4,0.2-0.5l2.8-1.5c0.1,0,0.1-0.1,0.2-0.2l1.5-2.7c0.1-0.3,0.5-0.3,0.7,0L420.8,617.2z"/>
				<path class="st0" d="M420.7,901.2c0,0.1,0.1,0.1,0.2,0.2l2.8,1.5c0.2,0.1,0.3,0.3,0.1,0.5c0,0.1-0.1,0.1-0.2,0.2l-2.8,1.5
					c-0.1,0-0.1,0.1-0.2,0.2l-1.5,2.7c-0.1,0.2-0.4,0.3-0.5,0.2c-0.1,0-0.1-0.1-0.1-0.2l-1.5-2.8c0-0.1-0.1-0.1-0.2-0.2l-2.7-1.5
					c-0.2-0.1-0.3-0.4-0.2-0.5c0-0.1,0.1-0.1,0.2-0.1l2.8-1.5c0.1,0,0.1-0.1,0.2-0.2l1.5-2.7c0.1-0.2,0.4-0.3,0.5-0.2
					c0.1,0,0.1,0.1,0.2,0.2L420.7,901.2z"/>
				<path class="st0" d="M425.7,1284c0.1-0.2,0.3-0.2,0.5-0.1c0.1,0,0.1,0.1,0.1,0.1l0.7,1.3c0,0.1,0.1,0.1,0.2,0.2l1.3,0.7
					c0.2,0.1,0.2,0.3,0.1,0.5c0,0.1-0.1,0.1-0.1,0.1l-1.3,0.7c-0.1,0-0.1,0.1-0.2,0.2l-0.7,1.3c-0.1,0.2-0.3,0.3-0.5,0.2
					c-0.1,0-0.1-0.1-0.2-0.2l-0.7-1.3c0-0.1-0.1-0.1-0.1-0.2l0,0l-1.3-0.7c-0.3-0.2-0.3-0.5,0-0.7l1.3-0.7c0.1,0,0.1-0.1,0.2-0.2
					L425.7,1284z"/>
				<path class="st0" d="M530.4,425.4c0,0.1,0.1,0.1,0.1,0.2l1.3,0.7c0.1,0,0.1,0.1,0.1,0.2c0.1,0.2,0,0.4-0.2,0.5l-1.3,0.7
					c-0.1,0-0.1,0.1-0.2,0.1l-0.7,1.3c0,0.1-0.1,0.1-0.1,0.1c-0.2,0.1-0.4,0-0.5-0.1l-0.7-1.3c0-0.1-0.1-0.1-0.1-0.2l-1.3-0.7
					c-0.1,0-0.1-0.1-0.1-0.1c-0.1-0.2,0-0.4,0.1-0.5l1.3-0.7c0.1,0,0.1-0.1,0.2-0.1l0.7-1.3c0-0.1,0.1-0.1,0.2-0.1
					c0.2-0.1,0.4,0,0.5,0.2L530.4,425.4z"/>
				<path class="st0" d="M530.3,1049.6c-0.1,0-0.1,0.1-0.2,0.1l-0.7,1.3c-0.1,0.2-0.3,0.3-0.5,0.2c-0.1,0-0.1-0.1-0.2-0.2l-0.7-1.3
					c0-0.1-0.1-0.1-0.1-0.2l-1.3-0.7c-0.3-0.1-0.3-0.5,0-0.7l1.3-0.7c0.1,0,0.1-0.1,0.2-0.2l0.7-1.3c0.1-0.2,0.3-0.2,0.5-0.1
					c0.1,0,0.1,0.1,0.1,0.1l0.7,1.3c0,0.1,0.1,0.1,0.2,0.2l1.3,0.7c0.2,0.1,0.2,0.3,0.1,0.5c0,0.1-0.1,0.1-0.1,0.1L530.3,1049.6z"/>
				<path class="st0" d="M597.9,1137.3c-1.6,0-2.9-1.3-2.9-2.9s1.3-2.9,2.9-2.9c1.6,0,2.9,1.3,2.9,2.9
					C600.8,1136,599.5,1137.3,597.9,1137.3z"/>
				<path class="st0" d="M595.3,255.4c0-1.6,1.3-2.9,2.9-2.9l0,0c1.6,0,2.9,1.3,2.9,2.9c0,1.6-1.3,2.9-2.9,2.9
					S595.3,257,595.3,255.4z"/>
				<path class="st0" d="M654,1209.7c-0.2-0.1-0.3-0.4-0.2-0.5c0-0.1,0.1-0.1,0.2-0.1l2.8-1.5c0.1,0,0.1-0.1,0.2-0.2l1.5-2.7
					c0.1-0.2,0.4-0.3,0.5-0.2c0.1,0,0.1,0.1,0.2,0.2l1.5,2.8c0,0.1,0.1,0.1,0.2,0.2l2.8,1.5c0.2,0.1,0.3,0.3,0.1,0.5
					c0,0.1-0.1,0.1-0.2,0.2l-2.8,1.5c-0.1,0-0.1,0.1-0.2,0.2l-1.5,2.7c-0.1,0.2-0.4,0.3-0.5,0.2c-0.1,0-0.1-0.1-0.1-0.2l-1.5-2.8
					c0-0.1-0.1-0.1-0.2-0.2L654,1209.7z"/>
				<path class="st0" d="M718.8,1287.7c0-0.1-0.1-0.1-0.2-0.2l-1.4-0.7c-0.2-0.1-0.3-0.4-0.1-0.5c0-0.1,0.1-0.1,0.2-0.2l1.4-0.7
					c0.1,0,0.1-0.1,0.2-0.2l0.7-1.4c0.1-0.2,0.4-0.3,0.5-0.1c0.1,0,0.1,0.1,0.1,0.2l0.7,1.4c0,0.1,0.1,0.1,0.1,0.2l1.4,0.7
					c0.2,0.1,0.3,0.4,0.2,0.5c0,0.1-0.1,0.1-0.2,0.2l-1.4,0.7c-0.1,0-0.1,0.1-0.2,0.1l-0.8,1.4c-0.1,0.2-0.3,0.3-0.5,0.2
					c-0.1,0-0.1-0.1-0.2-0.2L718.8,1287.7z"/>
				<path class="st0" d="M841.4,1243.6c0.1-0.2,0.3-0.3,0.5-0.2c0.1,0,0.1,0.1,0.2,0.2l1.5,2.8c0,0.1,0.1,0.1,0.2,0.2l2.8,1.5
					c0.2,0.1,0.3,0.4,0.1,0.5c0,0.1-0.1,0.1-0.2,0.2l-2.8,1.5c-0.1,0-0.1,0.1-0.2,0.2l-1.5,2.7c-0.1,0.2-0.4,0.3-0.5,0.2
					c-0.1,0-0.1-0.1-0.1-0.2l-1.5-2.8c0-0.1-0.1-0.1-0.2-0.2l-2.7-1.5c-0.2-0.1-0.3-0.4-0.2-0.5c0-0.1,0.1-0.1,0.2-0.2l2.8-1.5
					c0.1,0,0.1-0.1,0.2-0.2L841.4,1243.6z"/>
				<path class="st0" d="M1081,1294.8c-0.2-0.1-0.3-0.4-0.2-0.5c0-0.1,0.1-0.1,0.2-0.2l2.8-1.5c0.1,0,0.1-0.1,0.2-0.2l1.5-2.7
					c0.1-0.2,0.3-0.3,0.5-0.2c0.1,0,0.1,0.1,0.2,0.2l1.5,2.8c0,0.1,0.1,0.1,0.2,0.2l2.8,1.5c0.2,0.1,0.3,0.3,0.1,0.5
					c0,0.1-0.1,0.1-0.2,0.2l-2.8,1.5c-0.1,0-0.1,0.1-0.2,0.2l-1.5,2.8c-0.1,0.2-0.4,0.3-0.5,0.1c-0.1,0-0.1-0.1-0.1-0.2l-1.5-2.8
					c0-0.1-0.1-0.1-0.2-0.2L1081,1294.8z"/>
				<path class="st0" d="M1205,1225.9c-0.2-0.1-0.3-0.4-0.2-0.5c0-0.1,0.1-0.1,0.2-0.1l2.8-1.5c0.1,0,0.1-0.1,0.2-0.2l1.5-2.7
					c0.1-0.2,0.3-0.3,0.5-0.2c0.1,0,0.1,0.1,0.2,0.2l1.5,2.8c0,0.1,0.1,0.1,0.2,0.2l2.8,1.5c0.2,0.1,0.3,0.4,0.1,0.5
					c0,0.1-0.1,0.1-0.2,0.1l-2.8,1.5c-0.1,0-0.1,0.1-0.2,0.2l-1.5,2.7c-0.1,0.2-0.4,0.3-0.5,0.2c-0.1,0-0.1-0.1-0.1-0.2l-1.5-2.8
					c0-0.1-0.1-0.1-0.2-0.2L1205,1225.9z"/>
				<path class="st0" d="M1274.6,1344.5c0,0.1,0.1,0.1,0.2,0.2l2.8,1.5c0.2,0.1,0.3,0.3,0.1,0.5c0,0.1-0.1,0.1-0.2,0.2l-2.8,1.5
					c-0.1,0-0.1,0.1-0.2,0.2l-1.5,2.7c-0.1,0.2-0.4,0.3-0.5,0.2c-0.1,0-0.1-0.1-0.2-0.2l-1.5-2.8c0-0.1-0.1-0.1-0.2-0.2l-2.7-1.5
					c-0.2-0.1-0.3-0.4-0.2-0.5c0-0.1,0.1-0.1,0.2-0.1l2.8-1.5c0.1,0,0.1-0.1,0.2-0.2l1.5-2.7c0.1-0.2,0.3-0.3,0.5-0.2
					c0.1,0,0.1,0.1,0.2,0.2L1274.6,1344.5z"/>
				<polygon class="st0" points="1279.6,885.5 1277.6,884.4 1279.6,883.3 1280.7,881.3 1281.8,883.3 1283.9,884.4 1281.8,885.5 
					1280.7,887.5 				"/>
				<polygon class="st0" points="1281.9,643.3 1284,644.4 1281.9,645.5 1280.8,647.5 1279.7,645.5 1277.7,644.4 1279.7,643.3 
					1280.8,641.3 				"/>
				<path class="st0" d="M1504.8,1334.6c-1.6,0-2.9-1.3-2.9-2.9s1.3-2.9,2.9-2.9s2.9,1.3,2.9,2.9
					C1507.7,1333.3,1506.4,1334.6,1504.8,1334.6z"/>
				<path class="st0" d="M1508.2,62.7c0,1.6-1.3,2.9-2.9,2.9s-2.9-1.3-2.9-2.9s1.3-2.9,2.9-2.9C1506.9,59.8,1508.2,61.1,1508.2,62.7
					z"/>
				<path class="st0" d="M1563.6,1218.2c0.1-0.2,0.4-0.3,0.5-0.1c0.1,0,0.1,0.1,0.1,0.2l0.7,1.4c0,0.1,0.1,0.1,0.1,0.2l1.4,0.7
					c0.2,0.1,0.3,0.4,0.2,0.5c0,0.1-0.1,0.1-0.2,0.2l-1.4,0.7c-0.1,0-0.1,0.1-0.2,0.1l-0.8,1.4c-0.1,0.2-0.3,0.3-0.5,0.2
					c-0.1,0-0.1-0.1-0.2-0.2l-0.7-1.4c0-0.1-0.1-0.1-0.2-0.2l-1.4-0.7c-0.2-0.1-0.3-0.4-0.1-0.5c0-0.1,0.1-0.1,0.2-0.2l1.4-0.7
					c0.1,0,0.1-0.1,0.2-0.2L1563.6,1218.2z"/>
				<path class="st0" d="M1564.7,191.4c0,0.1-0.1,0.1-0.2,0.1c-0.2,0.1-0.4,0-0.5-0.2l-0.7-1.4c0-0.1-0.1-0.1-0.2-0.2l-1.4-0.7
					c-0.1,0-0.1-0.1-0.1-0.2c-0.1-0.2,0-0.4,0.2-0.5l1.4-0.7c0.1,0,0.1-0.1,0.2-0.2l0.7-1.4c0.2-0.3,0.5-0.3,0.7,0l0.7,1.4
					c0,0.1,0.1,0.1,0.2,0.2l1.4,0.7c0.1,0,0.1,0.1,0.2,0.2c0.1,0.2,0,0.4-0.2,0.5l-1.4,0.7c-0.1,0-0.1,0.1-0.2,0.2L1564.7,191.4z"/>
				<path class="st0" d="M1597.4,598.6c-0.2,0.1-0.4,0-0.5-0.2l-0.7-1.4c0-0.1-0.1-0.1-0.2-0.2l-1.4-0.7c-0.1,0-0.1-0.1-0.2-0.2
					c-0.1-0.2,0-0.4,0.2-0.5l1.4-0.7c0.1,0,0.1-0.1,0.2-0.2l0.7-1.4c0.2-0.3,0.5-0.3,0.7,0l0.7,1.4c0,0.1,0.1,0.1,0.1,0.2l1.4,0.7
					c0.1,0,0.1,0.1,0.2,0.2c0.1,0.2,0,0.4-0.2,0.5l-1.4,0.7c-0.1,0-0.1,0.1-0.2,0.2l-0.8,1.4
					C1597.5,598.5,1597.4,598.6,1597.4,598.6z"/>
				<path class="st0" d="M1599.6,934.5c0.2,0.1,0.3,0.4,0.2,0.5c0,0.1-0.1,0.1-0.2,0.2l-1.4,0.7c-0.1,0-0.1,0.1-0.2,0.1l-0.8,1.4
					c-0.1,0.2-0.3,0.3-0.5,0.2c-0.1,0-0.1-0.1-0.2-0.2l-0.7-1.4c0-0.1-0.1-0.1-0.2-0.2l-1.4-0.7c-0.2-0.1-0.3-0.4-0.1-0.5
					c0-0.1,0.1-0.1,0.2-0.2l1.4-0.7c0.1,0,0.1-0.1,0.2-0.2l0.7-1.4c0.1-0.2,0.4-0.3,0.5-0.1c0.1,0,0.1,0.1,0.1,0.2l0.7,1.4
					c0,0.1,0.1,0.1,0.1,0.2L1599.6,934.5z"/>
				<path class="st0" d="M1631.1,164.5c0.1,0.2,0,0.4-0.2,0.5l-2.8,1.5c-0.1,0-0.1,0.1-0.2,0.2l-1.5,2.7c0,0.1-0.1,0.1-0.2,0.2
					c-0.2,0.1-0.4,0-0.5-0.2l-1.5-2.8c0-0.1-0.1-0.1-0.2-0.2l-2.7-1.5c-0.1,0-0.1-0.1-0.2-0.2c-0.1-0.2,0-0.4,0.2-0.5l2.8-1.5
					c0.1,0,0.1-0.1,0.2-0.2l1.5-2.7c0.2-0.3,0.5-0.3,0.7,0l1.5,2.8c0,0.1,0.1,0.1,0.2,0.2l2.7,1.5
					C1631,164.4,1631.1,164.4,1631.1,164.5z"/>
				<path class="st0" d="M1630.5,1259.3c0.2,0.1,0.3,0.3,0.2,0.5c0,0.1-0.1,0.1-0.2,0.2l-2.8,1.5c-0.1,0-0.1,0.1-0.2,0.2l-1.5,2.7
					c-0.1,0.2-0.4,0.3-0.5,0.2c-0.1,0-0.1-0.1-0.1-0.2l-1.5-2.8c0-0.1-0.1-0.1-0.2-0.2l-2.7-1.5c-0.2-0.1-0.3-0.4-0.2-0.5
					c0-0.1,0.1-0.1,0.2-0.1l2.8-1.5c0.1,0,0.1-0.1,0.2-0.2l1.5-2.7c0.1-0.2,0.3-0.3,0.5-0.2c0.1,0,0.1,0.1,0.2,0.2l1.5,2.8
					c0,0.1,0.1,0.1,0.2,0.2L1630.5,1259.3z"/>
				<path class="st0" d="M1694,354.5c0.1,0.2,0,0.4-0.2,0.5l-2.8,1.5c-0.1,0-0.1,0.1-0.2,0.2l-1.5,2.8c0,0.1-0.1,0.1-0.2,0.1
					c-0.2,0.1-0.4,0-0.5-0.2l-1.5-2.8c0-0.1-0.1-0.1-0.2-0.2l-2.7-1.5c-0.1,0-0.1-0.1-0.2-0.2c-0.1-0.2,0-0.4,0.2-0.5l2.8-1.5
					c0.1,0,0.1-0.1,0.2-0.2l1.5-2.7c0.1-0.3,0.5-0.3,0.7,0l1.5,2.8c0,0.1,0.1,0.1,0.2,0.2l2.8,1.5
					C1693.9,354.4,1694,354.4,1694,354.5z"/>
				<path class="st0" d="M1683.9,1067.5c0-0.1,0.1-0.1,0.2-0.2l2.8-1.5c0.1,0,0.1-0.1,0.2-0.2l1.5-2.7c0.1-0.2,0.3-0.3,0.5-0.2
					c0.1,0,0.1,0.1,0.2,0.2l1.5,2.8c0,0.1,0.1,0.1,0.2,0.2l2.8,1.5c0.2,0.1,0.3,0.3,0.1,0.5c0,0.1-0.1,0.1-0.2,0.2l-2.8,1.5
					c-0.1,0-0.1,0.1-0.2,0.2l-1.5,2.7c-0.1,0.2-0.4,0.3-0.5,0.2c-0.1,0-0.1-0.1-0.2-0.2l-1.5-2.8c0-0.1-0.1-0.1-0.2-0.2l-2.7-1.5
					C1683.9,1067.9,1683.8,1067.7,1683.9,1067.5z"/>
			</g>
		</g>
		<polygon class="st1" points="1672.9,432.6 1673.7,434.1 1675.1,434.8 1673.7,435.6 1672.9,437 1672.1,435.6 1670.7,434.8 
			1672.1,434.1 		"/>
		<polygon class="st1" points="643.8,221.7 644.7,224.3 647.3,225.3 644.7,226.2 643.8,228.9 642.8,226.2 640.2,225.3 642.8,224.3 
					"/>
		<polygon class="st0" points="42.4,1177.3 43.6,1180.7 47,1181.9 43.6,1183 42.4,1186.4 41.3,1183 37.9,1181.9 41.3,1180.7 		"/>
		<polygon class="st0" points="1684,817.5 1682.3,820 1683.3,822.9 1680.8,821.2 1677.9,822.2 1679.5,819.7 1678.6,816.8 
			1681.1,818.5 		"/>
	</g>
</g>
</svg>
