<svg id="Layer_1" data-name="Layer 1" xmlns="http://www.w3.org/2000/svg" xmlns:xlink="http://www.w3.org/1999/xlink" viewBox="0 0 1214.06 413.86"><defs><style>.cls-1,.cls-4,.cls-5{fill:none;}.cls-2{clip-path:url(#clip-path);}.cls-3{fill:#fff;}.cls-4,.cls-5{stroke:#000;stroke-miterlimit:10;}.cls-5{stroke-width:12px;}.cls-6{font-size:186px;letter-spacing:0.06em;}.cls-6,.cls-9{font-family:GothamRounded-Light, Gotham Rounded;}.cls-7{letter-spacing:0.04em;}.cls-8{letter-spacing:0.06em;}.cls-9{font-size:72px;}.cls-10{letter-spacing:-0.02em;}.cls-11{letter-spacing:0em;}.cls-12{letter-spacing:-0.02em;}</style><clipPath id="clip-path" transform="translate(-1.79 -31.55)"><rect class="cls-1" x="-59" y="-1.52" width="480" height="480"/></clipPath></defs><title>watermark</title><g class="cls-2"><polygon class="cls-3" points="216.71 141.98 141.71 141.98 104.2 206.93 141.71 271.88 216.71 271.88 254.21 206.93 216.71 141.98"/><polygon class="cls-4" points="216.71 141.98 141.71 141.98 104.2 206.93 141.71 271.88 216.71 271.88 254.21 206.93 216.71 141.98"/><polygon class="cls-3" points="6 106.93 6 306.93 179.21 406.93 352.41 306.93 352.41 106.93 179.21 6.93 6 106.93"/><polygon class="cls-5" points="6 106.93 6 306.93 179.21 406.93 352.41 306.93 352.41 106.93 179.21 6.93 6 106.93"/><g class="cls-2"><path class="cls-3" d="M342.33,238.48A161.33,161.33,0,1,1,181,77.14,161.33,161.33,0,0,1,342.33,238.48" transform="translate(-1.79 -31.55)"/><circle class="cls-5" cx="179.2" cy="206.93" r="161.33"/><polygon points="179.21 131.93 193.35 192.79 254.21 206.93 193.35 221.07 179.21 281.93 165.06 221.07 104.2 206.93 165.06 192.79 179.21 131.93"/><polygon class="cls-5" points="179.21 131.93 193.35 192.79 254.21 206.93 193.35 221.07 179.21 281.93 165.06 221.07 104.2 206.93 165.06 192.79 179.21 131.93"/></g></g><text class="cls-6" transform="translate(367.66 238.45)">PUL<tspan class="cls-7" x="414.22" y="0">S</tspan><tspan class="cls-8" x="541.63" y="0">AR</tspan></text><text class="cls-9" transform="translate(379.14 311.18)">Labo<tspan class="cls-10" x="179.49" y="0">r</tspan><tspan class="cls-11" x="206.49" y="0">a</tspan><tspan class="cls-12" x="247.46" y="0">t</tspan><tspan x="275.18" y="0">ories</tspan></text></svg>