<svg id="Layer_1" data-name="Layer 1" xmlns="http://www.w3.org/2000/svg" viewBox="0 0 671.15 227.08"><defs><style>.cls-1{font-size:164px;font-family:Roboto-Bold, Roboto;font-weight:700;}.cls-2{letter-spacing:-0.01em;}.cls-3{fill:#4d4d4d;}.cls-4{fill:#d84315;}.cls-5{fill:#ffa000;}.cls-6{fill:#333;}.cls-7{fill:#9f0000;}.cls-8{font-size:56px;font-family:MyriadPro-Regular, Myriad Pro;}.cls-9{letter-spacing:-0.01em;}.cls-10{letter-spacing:-0.01em;}.cls-11{letter-spacing:0em;}</style></defs><title>watermark</title><text class="cls-1" transform="translate(206.94 143.95)">em<tspan class="cls-2" x="230.63" y="0">b</tspan><tspan x="322.07" y="0">yr</tspan></text><polygon class="cls-3" points="196.65 56.77 196.65 170.31 98.33 227.08 98.33 113.54 147.49 85.16 196.65 56.77"/><polygon class="cls-4" points="196.65 56.77 147.49 85.16 98.33 54.68 98.33 0 196.65 56.77"/><polygon class="cls-5" points="147.49 85.16 98.33 113.54 49.16 85.16 98.33 54.68 147.49 85.16"/><polygon class="cls-6" points="98.33 113.54 98.33 227.08 0 170.31 0 56.77 49.16 85.16 98.33 113.54"/><polygon class="cls-7" points="98.33 0 98.33 54.68 49.16 85.16 0 56.77 98.33 0"/><text class="cls-8" transform="translate(225.54 188.2)"><tspan class="cls-9">t</tspan><tspan x="18.2" y="0">echnolo</tspan><tspan class="cls-10" x="208.21" y="0">g</tspan><tspan class="cls-11" x="239.17" y="0">ies</tspan></text></svg>