<svg id="Layer_1" data-name="Layer 1" xmlns="http://www.w3.org/2000/svg" xmlns:xlink="http://www.w3.org/1999/xlink" viewBox="0 0 1214.06 413.86"><defs><style>@import url('https://fonts.googleapis.com/css?family=Nunito:400,100,100italic,300,300italic,400italic,500,500italic,700,700italic,900,900italic');.cls-1,.cls-3{fill:none;}.cls-2{clip-path:url(#clip-path);}.cls-3{stroke:#000;stroke-miterlimit:10;stroke-width:12px;}.cls-4{font-size:186px;letter-spacing:0.06em;}.cls-4,.cls-7{font-family:Nunito, sans-serif;}.cls-5{letter-spacing:0.04em;}.cls-6{letter-spacing:0.06em;}.cls-7{font-size:72px;}.cls-8{letter-spacing:-0.02em;}.cls-9{letter-spacing:0em;}.cls-10{letter-spacing:-0.02em;}</style><clipPath id="clip-path" transform="translate(-1.79 -31.55)"><rect class="cls-1" x="-59" y="-1.52" width="480" height="480"/></clipPath></defs><title>watermark</title><g class="cls-2"><polygon class="cls-3" points="6 106.93 6 306.93 179.21 406.93 352.41 306.93 352.41 106.93 179.21 6.93 6 106.93"/><g class="cls-2"><circle class="cls-3" cx="179.2" cy="206.93" r="162"/><polygon points="179.21 131.93 193.35 192.79 254.21 206.93 193.35 221.07 179.21 281.93 165.06 221.07 104.2 206.93 165.06 192.79 179.21 131.93"/><polygon class="cls-3" points="179.21 131.93 193.35 192.79 254.21 206.93 193.35 221.07 179.21 281.93 165.06 221.07 104.2 206.93 165.06 192.79 179.21 131.93"/></g></g><text class="cls-4" transform="translate(367.66 238.45)">PULSAR</text><text class="cls-7" transform="translate(379.14 311.18)">Laboratories</text></svg>
