<svg id="Layer_1" data-name="Layer 1" xmlns="http://www.w3.org/2000/svg" xmlns:xlink="http://www.w3.org/1999/xlink" viewBox="0 0 1215.56 413.86"><defs><style>.cls-1,.cls-8,.cls-9{fill:none;}.cls-2{font-size:186px;font-family:Roboto-Regular, Roboto;letter-spacing:0.06em;}.cls-2,.cls-5{fill:#d84315;}.cls-3{letter-spacing:0.05em;}.cls-4{letter-spacing:0.06em;}.cls-5{font-size:72px;font-family:Roboto;}.cls-6{letter-spacing:-0.13em;}.cls-7{clip-path:url(#clip-path);}.cls-8,.cls-9{stroke:#d84315;stroke-miterlimit:10;}.cls-8{stroke-width:12px;}</style><clipPath id="clip-path" transform="translate(-0.3 -31.89)"><rect class="cls-1" x="-60.5" y="-1.18" width="480" height="480"/></clipPath></defs><title>watermark</title><text class="cls-2" transform="translate(80 200)"><tspan class="cls-3" x="283.88" y="0">embyr</tspan></text><text class="cls-5" transform="translate(370.64 293.84)"><tspan class="cls-6">Technologies</tspan></text><g class="cls-7"><polygon class="cls-8" points="6 106.93 6 306.93 179.21 406.93 352.41 306.93 352.41 106.93 179.21 6.93 6 106.93"/><g class="cls-7"><circle class="cls-8" cx="179.2" cy="206.93" r="161.33"/><polygon class="cls-9" points="179.21 131.93 193.35 192.79 254.21 206.93 193.35 221.07 179.21 281.93 165.06 221.07 104.2 206.93 165.06 192.79 179.21 131.93"/><polygon class="cls-8" points="179.21 131.93 193.35 192.79 254.21 206.93 193.35 221.07 179.21 281.93 165.06 221.07 104.2 206.93 165.06 192.79 179.21 131.93"/></g></g></svg>
